# Blender 4.0.2
# www.blender.org
mtllib 0_Card_Mask.mtl
o Card_Mask
v -1.002206 1.529160 0.000000
v -1.070424 1.460793 0.000000
v -1.027183 1.525195 0.000000
v -1.044240 1.516485 0.000000
v -1.057777 1.502919 0.000000
v -1.066468 1.485824 0.000000
v 1.070424 1.460793 0.000000
v 1.002206 1.529160 0.000000
v 1.066468 1.485824 0.000000
v 1.057777 1.502919 0.000000
v 1.044240 1.516485 0.000000
v 1.027183 1.525195 0.000000
v -1.002206 -1.529160 0.000000
v -1.070424 -1.460793 0.000000
v -1.027183 -1.525195 0.000000
v -1.044240 -1.516485 0.000000
v -1.057777 -1.502919 0.000000
v -1.066468 -1.485824 0.000000
v 1.070424 -1.460793 0.000000
v 1.002206 -1.529160 0.000000
v 1.066468 -1.485824 0.000000
v 1.057777 -1.502919 0.000000
v 1.044240 -1.516485 0.000000
v 1.027183 -1.525195 0.000000
vn -0.0000 -0.0000 1.0000
vt 0.000000 0.000000
s 0
usemtl Mask
f 9/1/1 10/1/1 11/1/1 12/1/1 8/1/1 1/1/1 3/1/1 4/1/1 5/1/1 6/1/1 2/1/1 14/1/1 18/1/1 17/1/1 16/1/1 15/1/1 13/1/1 20/1/1 24/1/1 23/1/1 22/1/1 21/1/1 19/1/1 7/1/1
