# Blender v2.79 (sub 0) OBJ File: 'Base.blend'
# www.blender.org
mtllib Base.mtl
o Base_Cylinder.177
v -0.184262 0.413065 -0.253616
v -0.298143 0.413065 -0.096873
v -0.298143 0.413065 0.096873
v -0.184262 0.413065 0.253616
v 0.000001 0.413065 0.313487
v 0.184264 0.413065 0.253616
v 0.298145 0.413065 0.096873
v 0.298145 0.413065 -0.096873
v 0.000001 0.413065 -0.313487
v 0.184264 0.413065 -0.253616
v -0.184262 0.307894 -0.253616
v -0.298143 0.307894 -0.096873
v -0.298143 0.307894 0.096873
v -0.184262 0.307894 0.253616
v 0.000001 0.307894 0.313487
v 0.184264 0.307894 0.253616
v 0.000001 -0.043604 -0.524336
v 0.000001 0.043604 -0.524336
v 0.262169 -0.043604 -0.454088
v 0.262169 0.043604 -0.454088
v 0.454089 -0.043604 -0.262168
v 0.454089 0.043604 -0.262168
v 0.524337 -0.043604 -0.000000
v 0.524337 0.043604 -0.000000
v 0.454089 -0.043604 0.262168
v 0.454089 0.043604 0.262168
v 0.262169 -0.043604 0.454088
v 0.262169 0.043604 0.454088
v 0.000001 -0.043604 0.524336
v 0.000001 0.043604 0.524336
v -0.262167 -0.043604 0.454088
v -0.262167 0.043604 0.454088
v -0.454087 -0.043604 0.262168
v -0.454087 0.043604 0.262168
v -0.524335 -0.043604 0.000000
v -0.524335 0.043604 0.000000
v -0.454088 -0.043604 -0.262168
v -0.454088 0.043604 -0.262168
v -0.262167 -0.043604 -0.454088
v -0.262167 0.043604 -0.454088
v -0.046223 -0.032099 -0.688380
v -0.046223 0.032099 -0.688380
v 0.384222 0.032099 -0.573043
v 0.384222 -0.032099 -0.573043
v 0.573044 -0.032099 -0.384221
v 0.573044 0.032099 -0.384221
v 0.688381 0.032099 0.046224
v 0.688381 -0.032099 0.046224
v 0.619268 -0.032099 0.304159
v 0.619268 0.032099 0.304159
v 0.304160 0.032099 0.619267
v 0.304160 -0.032099 0.619267
v 0.046225 -0.032099 0.688380
v 0.046225 0.032099 0.688380
v -0.384220 0.032099 0.573043
v -0.384220 -0.032099 0.573043
v -0.573042 -0.032099 0.384221
v -0.573042 0.032099 0.384221
v -0.688379 0.032099 -0.046224
v -0.688379 -0.032099 -0.046224
v -0.619266 -0.032099 -0.304159
v -0.619266 0.032099 -0.304159
v -0.304159 0.032099 -0.619267
v -0.304159 -0.032099 -0.619267
v 0.298145 0.307894 0.096873
v 0.298145 0.307894 -0.096873
v 0.000001 0.307894 -0.313487
v 0.184264 0.307894 -0.253616
v -0.105016 0.307894 -0.144543
v -0.169920 0.307894 -0.055211
v -0.169920 0.307894 0.055211
v -0.105016 0.307894 0.144543
v 0.000001 0.307894 0.178665
v 0.105018 0.307894 0.144543
v 0.169922 0.307894 0.055211
v 0.169922 0.307894 -0.055211
v 0.000001 0.307894 -0.178665
v 0.105018 0.307894 -0.144543
v -0.105016 0.207979 -0.144543
v -0.169920 0.207979 -0.055211
v -0.169920 0.207979 0.055211
v -0.105016 0.207979 0.144543
v 0.000001 0.207979 0.178665
v 0.105018 0.207979 0.144543
v 0.169922 0.207979 0.055211
v 0.169922 0.207979 -0.055211
v 0.000001 0.207979 -0.178665
v 0.105018 0.207979 -0.144543
v -0.181254 0.207979 -0.249476
v -0.293276 0.207979 -0.095291
v -0.293276 0.207979 0.095291
v -0.181254 0.207979 0.249476
v 0.000001 0.207979 0.308369
v 0.181256 0.207979 0.249476
v 0.293278 0.207979 0.095291
v 0.293278 0.207979 -0.095291
v 0.000001 0.207979 -0.308369
v 0.181256 0.207979 -0.249476
v -0.193759 0.167749 -0.266688
v -0.313509 0.167749 -0.101866
v -0.313509 0.167749 0.101866
v -0.193759 0.167749 0.266688
v 0.000001 0.167749 0.329644
v 0.193761 0.167749 0.266688
v 0.313511 0.167749 0.101866
v 0.313511 0.167749 -0.101866
v 0.000001 0.167749 -0.329644
v 0.193761 0.167749 -0.266688
v -0.246977 0.145579 -0.339937
v -0.242492 0.110340 -0.333763
v -0.399618 0.145579 -0.129844
v -0.392361 0.110340 -0.127486
v -0.399618 0.145579 0.129844
v -0.392361 0.110340 0.127486
v -0.246977 0.145579 0.339936
v -0.242492 0.110340 0.333763
v 0.000001 0.145579 0.420185
v 0.000001 0.110340 0.412554
v 0.246979 0.145579 0.339937
v 0.242494 0.110340 0.333763
v 0.399620 0.145579 0.129844
v 0.392363 0.110340 0.127486
v 0.399620 0.145579 -0.129844
v 0.392363 0.110340 -0.127486
v 0.246979 0.145579 -0.339937
v 0.242494 0.110340 -0.333763
v 0.000001 0.145579 -0.420185
v 0.000001 0.110340 -0.412554
v 0.232349 0.043604 -0.402438
v 0.000001 0.043604 -0.464696
v 0.402439 0.043604 -0.232348
v 0.464696 0.043604 -0.000000
v 0.402439 0.043604 0.232348
v 0.232349 0.043604 0.402438
v 0.000001 0.043604 0.464695
v -0.232347 0.043604 0.402438
v -0.402437 0.043604 0.232348
v -0.464695 0.043604 0.000000
v -0.402437 0.043604 -0.232348
v -0.232347 0.043604 -0.402438
v 0.232349 0.116322 -0.402438
v 0.000001 0.116322 -0.464696
v 0.402439 0.116322 -0.232348
v 0.464696 0.116322 -0.000000
v 0.402439 0.116322 0.232348
v 0.232349 0.116322 0.402438
v 0.000001 0.116322 0.464695
v -0.232347 0.116322 0.402438
v -0.402437 0.116322 0.232348
v -0.464695 0.116322 0.000000
v -0.402437 0.116322 -0.232348
v -0.232347 0.116322 -0.402438
v 0.223629 0.415702 -0.307798
v 0.000001 0.415702 -0.380459
v 0.361839 0.415702 -0.117568
v 0.361839 0.415702 0.117568
v 0.223629 0.415702 0.307798
v 0.000001 0.415702 0.380459
v -0.223627 0.415702 0.307798
v -0.361837 0.415702 0.117568
v -0.361837 0.415702 -0.117568
v -0.223627 0.415702 -0.307798
v 0.223629 0.525178 -0.307798
v 0.000001 0.525178 -0.380459
v 0.361839 0.525178 -0.117568
v 0.361839 0.525178 0.117568
v 0.223629 0.525178 0.307798
v 0.000001 0.525178 0.380459
v -0.223627 0.525178 0.307798
v -0.361837 0.525178 0.117568
v -0.361837 0.525178 -0.117568
v -0.223627 0.525178 -0.307798
v 0.199980 0.525178 -0.275248
v 0.000001 0.525178 -0.340225
v 0.323574 0.525178 -0.105135
v 0.323574 0.525178 0.105135
v 0.199980 0.525178 0.275248
v 0.000001 0.525178 0.340225
v -0.199978 0.525178 0.275248
v -0.323572 0.525178 0.105135
v -0.323572 0.525178 -0.105135
v -0.199978 0.525178 -0.275248
v 0.199980 0.513773 -0.275248
v 0.000001 0.513773 -0.340225
v 0.323574 0.513773 -0.105135
v 0.323574 0.513773 0.105135
v 0.199980 0.513773 0.275248
v 0.000001 0.513773 0.340225
v -0.199978 0.513773 0.275248
v -0.323572 0.513773 0.105135
v -0.323572 0.513773 -0.105135
v -0.199978 0.513773 -0.275248
vn 0.2588 0.0000 -0.9659
vn -0.0651 0.9977 -0.0174
vn 0.9659 0.0000 -0.2588
vn 0.6980 0.0000 0.7161
vn 0.7071 0.0000 0.7071
vn 0.7161 0.0000 0.6980
vn -0.2588 0.0000 0.9659
vn -0.0651 -0.9977 -0.0174
vn -0.9659 0.0000 0.2588
vn -0.0174 0.9977 -0.0651
vn 0.0000 1.0000 0.0000
vn -0.7071 0.0000 -0.7071
vn 0.0476 0.9977 -0.0476
vn 0.0000 -1.0000 0.0000
vn 0.7071 0.0000 -0.7071
vn 0.9659 0.0000 0.2588
vn 0.2588 0.0000 0.9659
vn -0.7071 0.0000 0.7071
vn -0.9659 0.0000 -0.2588
vn -0.2588 0.0000 -0.9659
vn -0.0476 -0.9977 0.0476
vn 0.9692 0.0000 -0.2464
vn 0.2464 0.0000 -0.9692
vn -0.0476 0.9977 0.0476
vn 0.0174 -0.9977 0.0651
vn 0.2712 0.0000 -0.9625
vn -0.7161 0.0000 -0.6980
vn 0.9625 0.0000 -0.2712
vn 0.0174 0.9977 0.0651
vn 0.0651 -0.9977 0.0174
vn -0.6980 0.0000 -0.7161
vn -0.9625 0.0000 0.2712
vn -0.9692 0.0000 0.2464
vn 0.0651 0.9977 0.0174
vn 0.0476 -0.9977 -0.0476
vn -0.0174 -0.9977 -0.0651
vn -0.2464 0.0000 0.9692
vn -0.2712 0.0000 0.9625
vn -0.8090 0.0000 -0.5878
vn -1.0000 0.0000 0.0000
vn 0.8090 0.0000 0.5878
vn -0.3090 0.0000 0.9511
vn -0.3090 0.0000 -0.9511
vn 0.8090 0.0000 -0.5878
vn 0.3090 0.0000 0.9511
vn 0.3090 0.0000 -0.9511
vn 1.0000 0.0000 0.0000
vn -0.8090 0.0000 0.5878
vn -0.0414 -0.9991 0.0000
vn 0.7228 0.4493 0.5251
vn -0.2761 0.4493 -0.8496
vn -0.2761 0.4493 0.8496
vn 0.8934 0.4493 0.0000
vn -0.7228 0.4493 0.5251
vn 0.2761 0.4493 -0.8496
vn -0.0770 0.9684 -0.2371
vn 0.2493 0.9684 0.0000
vn 0.2761 0.4493 0.8496
vn -0.7228 0.4493 -0.5251
vn -0.2493 0.9684 0.0000
vn 0.2017 0.9684 0.1466
vn -0.0770 0.9684 0.2371
vn 0.0770 0.9684 0.2371
vn 0.0770 0.9684 -0.2371
vn -0.2017 0.9684 -0.1466
vn 0.2017 0.9684 -0.1466
vn 0.7228 0.4493 -0.5251
vn -0.7924 -0.2017 -0.5757
vn -0.7924 -0.2017 0.5757
vn 0.3027 -0.2017 0.9315
vn -0.3027 -0.2017 -0.9315
vn -0.8934 0.4493 0.0000
vn -0.2017 0.9684 0.1466
vn 0.9794 -0.2017 0.0000
vn 0.3027 -0.2017 -0.9315
vn 0.7924 -0.2017 -0.5757
vn 0.7924 -0.2017 0.5757
vn -0.9794 -0.2017 0.0000
vn -0.3027 -0.2017 0.9315
vn 0.0128 -0.9991 0.0393
vn 0.0335 -0.9991 -0.0243
vn -0.0335 -0.9991 -0.0243
vn -0.0128 -0.9991 0.0393
vn 0.0414 -0.9991 0.0000
vn -0.0128 -0.9991 -0.0393
vn -0.0335 -0.9991 0.0243
vn 0.0335 -0.9991 0.0243
vn 0.0128 -0.9991 -0.0393
usemtl Light
s off
f 17//1 18//1 20//1 19//1
f 36//2 38//2 62//2 59//2
f 21//3 22//3 24//3 23//3
f 31//4 32//4 55//4 56//4
f 25//5 26//5 28//5 27//5
f 22//6 21//6 45//6 46//6
f 29//7 30//7 32//7 31//7
f 37//8 35//8 60//8 61//8
f 33//9 34//9 36//9 35//9
f 40//10 18//10 42//10 63//10
f 34//11 32//11 136//11 137//11
f 37//12 38//12 40//12 39//12
f 20//13 22//13 46//13 43//13
f 17//14 19//14 21//14 23//14 25//14 27//14 29//14 31//14 33//14 35//14 37//14 39//14
f 44//15 43//15 46//15 45//15
f 48//16 47//16 50//16 49//16
f 52//17 51//17 54//17 53//17
f 56//18 55//18 58//18 57//18
f 60//19 59//19 62//19 61//19
f 64//20 63//20 42//20 41//20
f 33//21 31//21 56//21 57//21
f 27//22 28//22 51//22 52//22
f 38//23 37//23 61//23 62//23
f 32//24 34//24 58//24 55//24
f 29//25 27//25 52//25 53//25
f 23//26 24//26 47//26 48//26
f 34//27 33//27 57//27 58//27
f 18//28 17//28 41//28 42//28
f 28//29 30//29 54//29 51//29
f 25//30 23//30 48//30 49//30
f 19//31 20//31 43//31 44//31
f 30//32 29//32 53//32 54//32
f 39//33 40//33 63//33 64//33
f 24//34 26//34 50//34 47//34
f 21//35 19//35 44//35 45//35
f 17//36 39//36 64//36 41//36
f 26//37 25//37 49//37 50//37
f 35//38 36//38 59//38 60//38
f 79//39 80//39 70//39 69//39
f 80//40 81//40 71//40 70//40
f 84//41 85//41 75//41 74//41
f 82//42 83//42 73//42 72//42
f 87//43 79//43 69//43 77//43
f 86//44 88//44 78//44 76//44
f 83//45 84//45 74//45 73//45
f 88//46 87//46 77//46 78//46
f 85//47 86//47 76//47 75//47
f 81//48 82//48 72//48 71//48
f 131//15 129//15 141//15 143//15
f 32//11 30//11 135//11 136//11
f 30//11 28//11 134//11 135//11
f 28//11 26//11 133//11 134//11
f 26//11 24//11 132//11 133//11
f 18//11 40//11 140//11 130//11
f 20//11 18//11 130//11 129//11
f 24//11 22//11 131//11 132//11
f 40//11 38//11 139//11 140//11
f 22//11 20//11 129//11 131//11
f 38//11 36//11 138//11 139//11
f 36//11 34//11 137//11 138//11
f 141//11 142//11 152//11 151//11 150//11 149//11 148//11 147//11 146//11 145//11 144//11 143//11
f 138//9 137//9 149//9 150//9
f 135//17 134//17 146//17 147//17
f 132//3 131//3 143//3 144//3
f 139//19 138//19 150//19 151//19
f 136//7 135//7 147//7 148//7
f 133//16 132//16 144//16 145//16
f 140//12 139//12 151//12 152//12
f 129//1 130//1 142//1 141//1
f 137//18 136//18 148//18 149//18
f 134//5 133//5 145//5 146//5
f 130//20 140//20 152//20 142//20
f 183//11 184//11 192//11 191//11 190//11 189//11 188//11 187//11 186//11 185//11
usemtl Dark
f 68//46 67//46 9//46 10//46
f 70//14 71//14 13//14 12//14
f 71//14 72//14 14//14 13//14
f 72//14 73//14 15//14 14//14
f 66//44 68//44 10//44 8//44
f 77//14 69//14 11//14 67//14
f 76//14 78//14 68//14 66//14
f 73//14 74//14 16//14 15//14
f 11//39 12//39 2//39 1//39
f 2//49 3//49 160//49 161//49
f 75//14 76//14 66//14 65//14
f 14//42 15//42 5//42 4//42
f 69//14 70//14 12//14 11//14
f 78//14 77//14 67//14 68//14
f 12//40 13//40 3//40 2//40
f 15//45 16//45 6//45 5//45
f 92//11 93//11 83//11 82//11
f 96//11 98//11 88//11 86//11
f 89//11 90//11 80//11 79//11
f 74//14 75//14 65//14 16//14
f 94//11 95//11 85//11 84//11
f 104//50 105//50 95//50 94//50
f 98//11 97//11 87//11 88//11
f 93//11 94//11 84//11 83//11
f 91//11 92//11 82//11 81//11
f 107//51 99//51 89//51 97//51
f 102//52 103//52 93//52 92//52
f 105//53 106//53 96//53 95//53
f 101//54 102//54 92//54 91//54
f 97//11 89//11 79//11 87//11
f 108//55 107//55 97//55 98//55
f 90//11 91//11 81//11 80//11
f 95//11 96//11 86//11 85//11
f 127//56 109//56 99//56 107//56
f 121//57 123//57 106//57 105//57
f 103//58 104//58 94//58 93//58
f 99//59 100//59 90//59 89//59
f 111//60 113//60 101//60 100//60
f 119//61 121//61 105//61 104//61
f 115//62 117//62 103//62 102//62
f 117//63 119//63 104//63 103//63
f 125//64 127//64 107//64 108//64
f 109//65 111//65 100//65 99//65
f 123//66 125//66 108//66 106//66
f 106//67 108//67 98//67 96//67
f 112//68 111//68 109//68 110//68
f 116//69 115//69 113//69 114//69
f 120//70 119//70 117//70 118//70
f 110//71 109//71 127//71 128//71
f 100//72 101//72 91//72 90//72
f 113//73 115//73 102//73 101//73
f 124//74 123//74 121//74 122//74
f 128//75 127//75 125//75 126//75
f 126//76 125//76 123//76 124//76
f 122//77 121//77 119//77 120//77
f 114//78 113//78 111//78 112//78
f 118//79 117//79 115//79 116//79
f 128//14 126//14 124//14 122//14 120//14 118//14 116//14 114//14 112//14 110//14
f 65//47 66//47 8//47 7//47
f 67//43 11//43 1//43 9//43
f 13//48 14//48 4//48 3//48
f 16//41 65//41 7//41 6//41
f 158//45 157//45 167//45 168//45
f 5//80 6//80 157//80 158//80
f 8//81 10//81 153//81 155//81
f 1//82 2//82 161//82 162//82
f 4//83 5//83 158//83 159//83
f 7//84 8//84 155//84 156//84
f 9//85 1//85 162//85 154//85
f 3//86 4//86 159//86 160//86
f 6//87 7//87 156//87 157//87
f 10//88 9//88 154//88 153//88
f 170//11 169//11 179//11 180//11
f 155//44 153//44 163//44 165//44
f 162//39 161//39 171//39 172//39
f 159//42 158//42 168//42 169//42
f 156//47 155//47 165//47 166//47
f 154//43 162//43 172//43 164//43
f 160//48 159//48 169//48 170//48
f 157//41 156//41 166//41 167//41
f 153//46 154//46 164//46 163//46
f 161//40 160//40 170//40 171//40
f 177//39 176//39 186//39 187//39
f 167//11 166//11 176//11 177//11
f 163//11 164//11 174//11 173//11
f 171//11 170//11 180//11 181//11
f 168//11 167//11 177//11 178//11
f 165//11 163//11 173//11 175//11
f 172//11 171//11 181//11 182//11
f 169//11 168//11 178//11 179//11
f 166//11 165//11 175//11 176//11
f 164//11 172//11 182//11 174//11
f 173//42 174//42 184//42 183//42
f 181//47 180//47 190//47 191//47
f 178//43 177//43 187//43 188//43
f 175//48 173//48 183//48 185//48
f 182//41 181//41 191//41 192//41
f 179//46 178//46 188//46 189//46
f 176//40 175//40 185//40 186//40
f 174//45 182//45 192//45 184//45
f 180//44 179//44 189//44 190//44
