# Blender v2.79 (sub 0) OBJ File: 'Teleporter1.blend'
# www.blender.org
mtllib Teleporter1.mtl
o Teleporter1_Cylinder.180
v -0.184265 0.413065 -0.253616
v -0.298146 0.413065 -0.096873
v -0.298146 0.413065 0.096873
v -0.184265 0.413065 0.253616
v -0.000002 0.413065 0.313487
v 0.184261 0.413065 0.253616
v 0.298142 0.413065 0.096873
v 0.298142 0.413065 -0.096873
v -0.000002 0.413065 -0.313487
v 0.184261 0.413065 -0.253616
v -0.184265 0.307894 -0.253616
v -0.298146 0.307894 -0.096873
v -0.298146 0.307894 0.096873
v -0.184265 0.307894 0.253616
v -0.000002 0.307894 0.313487
v 0.184261 0.307894 0.253616
v -0.000002 -0.043604 -0.524336
v -0.000002 0.043604 -0.524336
v 0.262166 -0.043604 -0.454088
v 0.262166 0.043604 -0.454088
v 0.454086 -0.043604 -0.262168
v 0.454086 0.043604 -0.262168
v 0.524334 -0.043604 -0.000000
v 0.524334 0.043604 -0.000000
v 0.454086 -0.043604 0.262168
v 0.454086 0.043604 0.262168
v 0.262166 -0.043604 0.454088
v 0.262166 0.043604 0.454088
v -0.000002 -0.043604 0.524336
v -0.000002 0.043604 0.524336
v -0.262170 -0.043604 0.454088
v -0.262170 0.043604 0.454088
v -0.454090 -0.043604 0.262168
v -0.454090 0.043604 0.262168
v -0.524338 -0.043604 0.000000
v -0.524338 0.043604 0.000000
v -0.454090 -0.043604 -0.262168
v -0.454090 0.043604 -0.262168
v -0.262170 -0.043604 -0.454088
v -0.262170 0.043604 -0.454088
v -0.046226 -0.032099 -0.688380
v -0.046226 0.032099 -0.688380
v 0.384219 0.032099 -0.573043
v 0.384219 -0.032099 -0.573043
v 0.573041 -0.032099 -0.384221
v 0.573041 0.032099 -0.384221
v 0.688378 0.032099 0.046224
v 0.688378 -0.032099 0.046224
v 0.619265 -0.032099 0.304159
v 0.619265 0.032099 0.304159
v 0.304157 0.032099 0.619267
v 0.304157 -0.032099 0.619267
v 0.046222 -0.032099 0.688380
v 0.046222 0.032099 0.688380
v -0.384223 0.032099 0.573043
v -0.384223 -0.032099 0.573043
v -0.573045 -0.032099 0.384221
v -0.573045 0.032099 0.384221
v -0.688382 0.032099 -0.046224
v -0.688382 -0.032099 -0.046224
v -0.619269 -0.032099 -0.304159
v -0.619269 0.032099 -0.304159
v -0.304161 0.032099 -0.619267
v -0.304161 -0.032099 -0.619267
v 0.298142 0.307894 0.096873
v 0.298142 0.307894 -0.096873
v -0.000002 0.307894 -0.313487
v 0.184261 0.307894 -0.253616
v -0.105019 0.307894 -0.144543
v -0.169923 0.307894 -0.055211
v -0.169923 0.307894 0.055211
v -0.105019 0.307894 0.144543
v -0.000002 0.307894 0.178665
v 0.105015 0.307894 0.144543
v 0.169919 0.307894 0.055211
v 0.169919 0.307894 -0.055211
v -0.000002 0.307894 -0.178665
v 0.105015 0.307894 -0.144543
v -0.105019 0.207979 -0.144543
v -0.169923 0.207979 -0.055211
v -0.169923 0.207979 0.055211
v -0.105019 0.207979 0.144543
v -0.000002 0.207979 0.178665
v 0.105015 0.207979 0.144543
v 0.169919 0.207979 0.055211
v 0.169919 0.207979 -0.055211
v -0.000002 0.207979 -0.178665
v 0.105015 0.207979 -0.144543
v -0.181257 0.207979 -0.249476
v -0.293279 0.207979 -0.095291
v -0.293279 0.207979 0.095291
v -0.181257 0.207979 0.249476
v -0.000002 0.207979 0.308369
v 0.181253 0.207979 0.249476
v 0.293275 0.207979 0.095291
v 0.293275 0.207979 -0.095291
v -0.000002 0.207979 -0.308369
v 0.181253 0.207979 -0.249476
v -0.193762 0.167749 -0.266688
v -0.313512 0.167749 -0.101866
v -0.313512 0.167749 0.101866
v -0.193762 0.167749 0.266688
v -0.000002 0.167749 0.329644
v 0.193758 0.167749 0.266688
v 0.313509 0.167749 0.101866
v 0.313509 0.167749 -0.101866
v -0.000002 0.167749 -0.329644
v 0.193758 0.167749 -0.266688
v -0.246980 0.145579 -0.339937
v -0.242495 0.110340 -0.333763
v -0.399621 0.145579 -0.129844
v -0.392364 0.110340 -0.127486
v -0.399621 0.145579 0.129844
v -0.392364 0.110340 0.127486
v -0.246980 0.145579 0.339936
v -0.242495 0.110340 0.333763
v -0.000002 0.145579 0.420185
v -0.000002 0.110340 0.412554
v 0.246976 0.145579 0.339937
v 0.242491 0.110340 0.333763
v 0.399617 0.145579 0.129844
v 0.392360 0.110340 0.127486
v 0.399617 0.145579 -0.129844
v 0.392360 0.110340 -0.127486
v 0.246976 0.145579 -0.339937
v 0.242491 0.110340 -0.333763
v -0.000002 0.145579 -0.420185
v -0.000002 0.110340 -0.412554
v 0.232346 0.043604 -0.402438
v -0.000002 0.043604 -0.464696
v 0.402436 0.043604 -0.232348
v 0.464694 0.043604 -0.000000
v 0.402436 0.043604 0.232348
v 0.232346 0.043604 0.402438
v -0.000002 0.043604 0.464695
v -0.232350 0.043604 0.402438
v -0.402440 0.043604 0.232348
v -0.464697 0.043604 0.000000
v -0.402440 0.043604 -0.232348
v -0.232350 0.043604 -0.402438
v 0.232346 0.116322 -0.402438
v -0.000002 0.116322 -0.464696
v 0.402436 0.116322 -0.232348
v 0.464694 0.116322 -0.000000
v 0.402436 0.116322 0.232348
v 0.232346 0.116322 0.402438
v -0.000002 0.116322 0.464695
v -0.232350 0.116322 0.402438
v -0.402440 0.116322 0.232348
v -0.464697 0.116322 0.000000
v -0.402440 0.116322 -0.232348
v -0.232350 0.116322 -0.402438
v 0.223626 0.415702 -0.307798
v -0.000002 0.415702 -0.380459
v 0.361836 0.415702 -0.117568
v 0.361836 0.415702 0.117568
v 0.223626 0.415702 0.307798
v -0.000002 0.415702 0.380459
v -0.223630 0.415702 0.307798
v -0.361840 0.415702 0.117568
v -0.361840 0.415702 -0.117568
v -0.223630 0.415702 -0.307798
v 0.223626 0.525178 -0.307798
v -0.000002 0.525178 -0.380459
v 0.361836 0.525178 -0.117568
v 0.361836 0.525178 0.117568
v 0.223626 0.525178 0.307798
v -0.000002 0.525178 0.380459
v -0.223630 0.525178 0.307798
v -0.361840 0.525178 0.117568
v -0.361840 0.525178 -0.117568
v -0.223630 0.525178 -0.307798
v 0.199977 0.525178 -0.275248
v -0.000002 0.525178 -0.340225
v 0.323571 0.525178 -0.105135
v 0.323571 0.525178 0.105135
v 0.199977 0.525178 0.275248
v -0.000002 0.525178 0.340225
v -0.199981 0.525178 0.275248
v -0.323575 0.525178 0.105135
v -0.323575 0.525178 -0.105135
v -0.199981 0.525178 -0.275248
v 0.199977 0.513773 -0.275248
v -0.000002 0.513773 -0.340225
v 0.323571 0.513773 -0.105135
v 0.323571 0.513773 0.105135
v 0.199977 0.513773 0.275248
v -0.000002 0.513773 0.340225
v -0.199981 0.513773 0.275248
v -0.323575 0.513773 0.105135
v -0.323575 0.513773 -0.105135
v -0.199981 0.513773 -0.275248
v 0.111819 0.513773 -0.153909
v -0.000002 0.513773 -0.190241
v 0.180928 0.513773 -0.058788
v 0.180928 0.513773 0.058788
v 0.111819 0.513773 0.153908
v -0.000002 0.513773 0.190241
v -0.111823 0.513773 0.153908
v -0.180932 0.513773 0.058788
v -0.180932 0.513773 -0.058788
v -0.111823 0.513773 -0.153909
v 0.077834 0.480245 -0.107132
v -0.000002 0.480245 -0.132423
v 0.125940 0.480245 -0.040921
v 0.125940 0.480245 0.040921
v 0.077834 0.480245 0.107132
v -0.000002 0.480245 0.132423
v -0.077838 0.480245 0.107132
v -0.125943 0.480245 0.040921
v -0.125943 0.480245 -0.040921
v -0.077838 0.480245 -0.107132
vn 0.2588 0.0000 -0.9659
vn -0.0651 0.9977 -0.0174
vn 0.9659 0.0000 -0.2588
vn 0.6980 0.0000 0.7161
vn 0.7071 0.0000 0.7071
vn 0.7161 0.0000 0.6980
vn -0.2588 0.0000 0.9659
vn -0.0651 -0.9977 -0.0174
vn -0.9659 0.0000 0.2588
vn -0.0174 0.9977 -0.0651
vn 0.0000 1.0000 0.0000
vn -0.7071 0.0000 -0.7071
vn 0.0476 0.9977 -0.0476
vn 0.0000 -1.0000 0.0000
vn 0.7071 0.0000 -0.7071
vn 0.9659 0.0000 0.2588
vn 0.2588 0.0000 0.9659
vn -0.7071 0.0000 0.7071
vn -0.9659 0.0000 -0.2588
vn -0.2588 0.0000 -0.9659
vn -0.0476 -0.9977 0.0476
vn 0.9692 0.0000 -0.2464
vn 0.2464 0.0000 -0.9692
vn -0.0476 0.9977 0.0476
vn 0.0174 -0.9977 0.0651
vn 0.2712 0.0000 -0.9625
vn -0.7161 0.0000 -0.6980
vn 0.9625 0.0000 -0.2712
vn 0.0174 0.9977 0.0651
vn 0.0651 -0.9977 0.0174
vn -0.6980 0.0000 -0.7161
vn -0.9625 0.0000 0.2712
vn -0.9692 0.0000 0.2464
vn 0.0651 0.9977 0.0174
vn 0.0476 -0.9977 -0.0476
vn -0.0174 -0.9977 -0.0651
vn -0.2464 0.0000 0.9692
vn -0.2712 0.0000 0.9625
vn -0.8090 0.0000 -0.5878
vn -1.0000 0.0000 0.0000
vn 0.8090 0.0000 0.5878
vn -0.3090 0.0000 0.9511
vn -0.3090 0.0000 -0.9511
vn 0.8090 0.0000 -0.5878
vn 0.3090 0.0000 0.9511
vn 0.3090 0.0000 -0.9511
vn 1.0000 0.0000 0.0000
vn -0.8090 0.0000 0.5878
vn -0.0414 -0.9991 0.0000
vn 0.7228 0.4493 0.5251
vn -0.2761 0.4493 -0.8496
vn -0.2761 0.4493 0.8496
vn 0.8934 0.4493 0.0000
vn -0.7228 0.4493 0.5251
vn 0.2761 0.4493 -0.8496
vn -0.0770 0.9684 -0.2371
vn 0.2493 0.9684 0.0000
vn 0.2761 0.4493 0.8496
vn -0.7228 0.4493 -0.5251
vn -0.2493 0.9684 0.0000
vn 0.2017 0.9684 0.1466
vn -0.0770 0.9684 0.2371
vn 0.0770 0.9684 0.2371
vn 0.0770 0.9684 -0.2371
vn -0.2017 0.9684 -0.1466
vn 0.2017 0.9684 -0.1466
vn 0.7228 0.4493 -0.5251
vn -0.7924 -0.2017 -0.5757
vn -0.7924 -0.2017 0.5757
vn 0.3027 -0.2017 0.9315
vn -0.3027 -0.2017 -0.9315
vn -0.8934 0.4493 0.0000
vn -0.2017 0.9684 0.1466
vn 0.9794 -0.2017 0.0000
vn 0.3027 -0.2017 -0.9315
vn 0.7924 -0.2017 -0.5757
vn 0.7924 -0.2017 0.5757
vn -0.9794 -0.2017 0.0000
vn -0.3027 -0.2017 0.9315
vn 0.0128 -0.9991 0.0393
vn 0.0335 -0.9991 -0.0243
vn -0.0335 -0.9991 -0.0243
vn -0.0128 -0.9991 0.0393
vn 0.0414 -0.9991 0.0000
vn -0.0128 -0.9991 -0.0393
vn -0.0335 -0.9991 0.0243
vn 0.0335 -0.9991 0.0243
vn 0.0128 -0.9991 -0.0393
vn 0.1609 0.8538 0.4951
vn 0.4212 0.8538 -0.3060
vn -0.4212 0.8538 -0.3060
vn -0.1609 0.8538 0.4951
vn 0.5206 0.8538 0.0000
vn -0.1609 0.8538 -0.4951
vn -0.4212 0.8538 0.3060
vn 0.4212 0.8538 0.3060
vn 0.1609 0.8538 -0.4951
vn -0.5206 0.8538 0.0000
usemtl Light
s off
f 17//1 18//1 20//1 19//1
f 36//2 38//2 62//2 59//2
f 21//3 22//3 24//3 23//3
f 31//4 32//4 55//4 56//4
f 25//5 26//5 28//5 27//5
f 22//6 21//6 45//6 46//6
f 29//7 30//7 32//7 31//7
f 37//8 35//8 60//8 61//8
f 33//9 34//9 36//9 35//9
f 40//10 18//10 42//10 63//10
f 34//11 32//11 136//11 137//11
f 37//12 38//12 40//12 39//12
f 20//13 22//13 46//13 43//13
f 17//14 19//14 21//14 23//14 25//14 27//14 29//14 31//14 33//14 35//14 37//14 39//14
f 44//15 43//15 46//15 45//15
f 48//16 47//16 50//16 49//16
f 52//17 51//17 54//17 53//17
f 56//18 55//18 58//18 57//18
f 60//19 59//19 62//19 61//19
f 64//20 63//20 42//20 41//20
f 33//21 31//21 56//21 57//21
f 27//22 28//22 51//22 52//22
f 38//23 37//23 61//23 62//23
f 32//24 34//24 58//24 55//24
f 29//25 27//25 52//25 53//25
f 23//26 24//26 47//26 48//26
f 34//27 33//27 57//27 58//27
f 18//28 17//28 41//28 42//28
f 28//29 30//29 54//29 51//29
f 25//30 23//30 48//30 49//30
f 19//31 20//31 43//31 44//31
f 30//32 29//32 53//32 54//32
f 39//33 40//33 63//33 64//33
f 24//34 26//34 50//34 47//34
f 21//35 19//35 44//35 45//35
f 17//36 39//36 64//36 41//36
f 26//37 25//37 49//37 50//37
f 35//38 36//38 59//38 60//38
f 79//39 80//39 70//39 69//39
f 80//40 81//40 71//40 70//40
f 84//41 85//41 75//41 74//41
f 82//42 83//42 73//42 72//42
f 87//43 79//43 69//43 77//43
f 86//44 88//44 78//44 76//44
f 83//45 84//45 74//45 73//45
f 88//46 87//46 77//46 78//46
f 85//47 86//47 76//47 75//47
f 81//48 82//48 72//48 71//48
f 131//15 129//15 141//15 143//15
f 32//11 30//11 135//11 136//11
f 30//11 28//11 134//11 135//11
f 28//11 26//11 133//11 134//11
f 26//11 24//11 132//11 133//11
f 18//11 40//11 140//11 130//11
f 20//11 18//11 130//11 129//11
f 24//11 22//11 131//11 132//11
f 40//11 38//11 139//11 140//11
f 22//11 20//11 129//11 131//11
f 38//11 36//11 138//11 139//11
f 36//11 34//11 137//11 138//11
f 141//11 142//11 152//11 151//11 150//11 149//11 148//11 147//11 146//11 145//11 144//11 143//11
f 138//9 137//9 149//9 150//9
f 135//17 134//17 146//17 147//17
f 132//3 131//3 143//3 144//3
f 139//19 138//19 150//19 151//19
f 136//7 135//7 147//7 148//7
f 133//16 132//16 144//16 145//16
f 140//12 139//12 151//12 152//12
f 129//1 130//1 142//1 141//1
f 137//18 136//18 148//18 149//18
f 134//5 133//5 145//5 146//5
f 130//20 140//20 152//20 142//20
usemtl Dark
f 68//46 67//46 9//46 10//46
f 70//14 71//14 13//14 12//14
f 71//14 72//14 14//14 13//14
f 72//14 73//14 15//14 14//14
f 66//44 68//44 10//44 8//44
f 77//14 69//14 11//14 67//14
f 76//14 78//14 68//14 66//14
f 73//14 74//14 16//14 15//14
f 11//39 12//39 2//39 1//39
f 2//49 3//49 160//49 161//49
f 75//14 76//14 66//14 65//14
f 14//42 15//42 5//42 4//42
f 69//14 70//14 12//14 11//14
f 78//14 77//14 67//14 68//14
f 12//40 13//40 3//40 2//40
f 15//45 16//45 6//45 5//45
f 92//11 93//11 83//11 82//11
f 96//11 98//11 88//11 86//11
f 89//11 90//11 80//11 79//11
f 74//14 75//14 65//14 16//14
f 94//11 95//11 85//11 84//11
f 104//50 105//50 95//50 94//50
f 98//11 97//11 87//11 88//11
f 93//11 94//11 84//11 83//11
f 91//11 92//11 82//11 81//11
f 107//51 99//51 89//51 97//51
f 102//52 103//52 93//52 92//52
f 105//53 106//53 96//53 95//53
f 101//54 102//54 92//54 91//54
f 97//11 89//11 79//11 87//11
f 108//55 107//55 97//55 98//55
f 90//11 91//11 81//11 80//11
f 95//11 96//11 86//11 85//11
f 127//56 109//56 99//56 107//56
f 121//57 123//57 106//57 105//57
f 103//58 104//58 94//58 93//58
f 99//59 100//59 90//59 89//59
f 111//60 113//60 101//60 100//60
f 119//61 121//61 105//61 104//61
f 115//62 117//62 103//62 102//62
f 117//63 119//63 104//63 103//63
f 125//64 127//64 107//64 108//64
f 109//65 111//65 100//65 99//65
f 123//66 125//66 108//66 106//66
f 106//67 108//67 98//67 96//67
f 112//68 111//68 109//68 110//68
f 116//69 115//69 113//69 114//69
f 120//70 119//70 117//70 118//70
f 110//71 109//71 127//71 128//71
f 100//72 101//72 91//72 90//72
f 113//73 115//73 102//73 101//73
f 124//74 123//74 121//74 122//74
f 128//75 127//75 125//75 126//75
f 126//76 125//76 123//76 124//76
f 122//77 121//77 119//77 120//77
f 114//78 113//78 111//78 112//78
f 118//79 117//79 115//79 116//79
f 128//14 126//14 124//14 122//14 120//14 118//14 116//14 114//14 112//14 110//14
f 65//47 66//47 8//47 7//47
f 67//43 11//43 1//43 9//43
f 13//48 14//48 4//48 3//48
f 16//41 65//41 7//41 6//41
f 158//45 157//45 167//45 168//45
f 5//80 6//80 157//80 158//80
f 8//81 10//81 153//81 155//81
f 1//82 2//82 161//82 162//82
f 4//83 5//83 158//83 159//83
f 7//84 8//84 155//84 156//84
f 9//85 1//85 162//85 154//85
f 3//86 4//86 159//86 160//86
f 6//87 7//87 156//87 157//87
f 10//88 9//88 154//88 153//88
f 170//11 169//11 179//11 180//11
f 155//44 153//44 163//44 165//44
f 162//39 161//39 171//39 172//39
f 159//42 158//42 168//42 169//42
f 156//47 155//47 165//47 166//47
f 154//43 162//43 172//43 164//43
f 160//48 159//48 169//48 170//48
f 157//41 156//41 166//41 167//41
f 153//46 154//46 164//46 163//46
f 161//40 160//40 170//40 171//40
f 177//39 176//39 186//39 187//39
f 167//11 166//11 176//11 177//11
f 163//11 164//11 174//11 173//11
f 171//11 170//11 180//11 181//11
f 168//11 167//11 177//11 178//11
f 165//11 163//11 173//11 175//11
f 172//11 171//11 181//11 182//11
f 169//11 168//11 178//11 179//11
f 166//11 165//11 175//11 176//11
f 164//11 172//11 182//11 174//11
f 186//11 185//11 195//11 196//11
f 173//42 174//42 184//42 183//42
f 181//47 180//47 190//47 191//47
f 178//43 177//43 187//43 188//43
f 175//48 173//48 183//48 185//48
f 182//41 181//41 191//41 192//41
f 179//46 178//46 188//46 189//46
f 176//40 175//40 185//40 186//40
f 174//45 182//45 192//45 184//45
f 180//44 179//44 189//44 190//44
f 194//89 202//89 212//89 204//89
f 184//11 192//11 202//11 194//11
f 190//11 189//11 199//11 200//11
f 187//11 186//11 196//11 197//11
f 183//11 184//11 194//11 193//11
f 191//11 190//11 200//11 201//11
f 188//11 187//11 197//11 198//11
f 185//11 183//11 193//11 195//11
f 192//11 191//11 201//11 202//11
f 189//11 188//11 198//11 199//11
f 203//11 204//11 212//11 211//11 210//11 209//11 208//11 207//11 206//11 205//11
f 200//90 199//90 209//90 210//90
f 197//91 196//91 206//91 207//91
f 193//92 194//92 204//92 203//92
f 201//93 200//93 210//93 211//93
f 198//94 197//94 207//94 208//94
f 195//95 193//95 203//95 205//95
f 202//96 201//96 211//96 212//96
f 199//97 198//97 208//97 209//97
f 196//98 195//98 205//98 206//98
o Teleporter1_Top_Cylinder.257
v 0.261008 0.457863 -0.142187
v 0.370135 0.775279 -0.328863
v 0.142185 0.457863 -0.261010
v 0.328862 0.775279 -0.370137
v 0.374693 0.587804 -0.177083
v 0.177081 0.587804 -0.374695
v 0.125029 0.477844 -0.243854
v 0.243852 0.477844 -0.125031
v 0.357537 0.607785 -0.159927
v 0.357230 0.790309 -0.315958
v 0.315957 0.790309 -0.357232
v 0.159925 0.607785 -0.357539
v 0.084019 0.457863 -0.285103
v 0.029183 0.775279 -0.494268
v -0.084022 0.457863 -0.285103
v -0.029187 0.775279 -0.494268
v 0.139731 0.587804 -0.390166
v -0.139734 0.587804 -0.390166
v -0.084022 0.477844 -0.260841
v 0.084019 0.477844 -0.260841
v 0.139731 0.607785 -0.365904
v 0.029183 0.790309 -0.476018
v -0.029187 0.790309 -0.476018
v -0.139734 0.607785 -0.365904
v -0.142189 0.457863 -0.261010
v -0.328865 0.775279 -0.370137
v -0.261012 0.457863 -0.142187
v -0.370139 0.775279 -0.328864
v -0.177085 0.587804 -0.374695
v -0.374697 0.587804 -0.177083
v -0.243856 0.477844 -0.125031
v -0.125033 0.477844 -0.243854
v -0.159929 0.607785 -0.357539
v -0.315960 0.790309 -0.357232
v -0.357234 0.790309 -0.315959
v -0.357541 0.607785 -0.159927
v -0.285105 0.457863 -0.084021
v -0.494270 0.775279 -0.029185
v -0.285105 0.457863 0.084020
v -0.494270 0.775279 0.029185
v -0.390168 0.587804 -0.139733
v -0.390168 0.587804 0.139732
v -0.260843 0.477844 0.084020
v -0.260843 0.477844 -0.084021
v -0.365906 0.607785 -0.139733
v -0.476019 0.790309 -0.029185
v -0.476020 0.790309 0.029185
v -0.365906 0.607785 0.139732
v -0.261012 0.457863 0.142187
v -0.370139 0.775279 0.328863
v -0.142189 0.457863 0.261010
v -0.328865 0.775279 0.370137
v -0.374697 0.587804 0.177083
v -0.177085 0.587804 0.374695
v -0.125033 0.477844 0.243854
v -0.243856 0.477844 0.125031
v -0.357541 0.607785 0.159927
v -0.357234 0.790309 0.315958
v -0.315960 0.790309 0.357232
v -0.159929 0.607785 0.357539
v -0.084022 0.457863 0.285103
v -0.029187 0.775279 0.494268
v 0.084018 0.457863 0.285103
v 0.029183 0.775279 0.494268
v -0.139735 0.587804 0.390166
v 0.139731 0.587804 0.390166
v 0.084018 0.477844 0.260841
v -0.084022 0.477844 0.260841
v -0.139735 0.607786 0.365904
v -0.029187 0.790309 0.476018
v 0.029183 0.790309 0.476018
v 0.139731 0.607785 0.365904
v 0.142185 0.457863 0.261010
v 0.328861 0.775279 0.370137
v 0.261008 0.457863 0.142187
v 0.370135 0.775279 0.328863
v 0.177081 0.587804 0.374695
v 0.374693 0.587804 0.177083
v 0.243852 0.477844 0.125031
v 0.125029 0.477844 0.243854
v 0.159925 0.607785 0.357539
v 0.315956 0.790309 0.357232
v 0.357230 0.790309 0.315958
v 0.357537 0.607785 0.159927
v 0.285101 0.457863 0.084020
v 0.494266 0.775279 0.029185
v 0.285101 0.457863 -0.084021
v 0.494266 0.775279 -0.029185
v 0.390164 0.587804 0.139732
v 0.390164 0.587804 -0.139733
v 0.260839 0.477844 -0.084021
v 0.260839 0.477844 0.084020
v 0.365902 0.607785 0.139732
v 0.476016 0.790309 0.029185
v 0.476016 0.790309 -0.029185
v 0.365902 0.607785 -0.139733
vn 0.6182 -0.4855 -0.6182
vn 0.5499 -0.6287 -0.5499
vn -0.6055 0.5166 0.6055
vn -0.5499 0.6287 0.5499
vn 0.4495 0.7719 -0.4495
vn -0.4495 -0.7719 0.4495
vn -0.4176 0.3584 -0.8350
vn -0.8130 -0.2442 -0.5286
vn 0.8350 0.3584 0.4176
vn 0.5286 -0.2442 0.8130
vn 0.0000 -0.4855 -0.8743
vn 0.0000 -0.6287 -0.7776
vn -0.0000 0.5166 0.8562
vn -0.0000 0.6287 0.7776
vn 0.0000 0.7719 -0.6357
vn -0.0000 -0.7719 0.6357
vn -0.8857 0.3584 -0.2951
vn -0.9487 -0.2442 0.2011
vn 0.8857 0.3584 -0.2951
vn 0.9487 -0.2442 0.2011
vn -0.6182 -0.4855 -0.6182
vn -0.5499 -0.6287 -0.5499
vn 0.6055 0.5166 0.6055
vn 0.5499 0.6287 0.5499
vn -0.4495 0.7719 -0.4495
vn 0.4495 -0.7719 0.4495
vn -0.8350 0.3584 0.4176
vn -0.5286 -0.2442 0.8130
vn 0.4176 0.3584 -0.8350
vn 0.8130 -0.2442 -0.5286
vn -0.8743 -0.4855 -0.0000
vn -0.7776 -0.6287 -0.0000
vn 0.8562 0.5166 0.0000
vn 0.7776 0.6287 0.0000
vn -0.6357 0.7719 -0.0000
vn 0.6357 -0.7719 0.0000
vn -0.2951 0.3584 0.8857
vn 0.2011 -0.2442 0.9487
vn -0.2951 0.3584 -0.8857
vn 0.2011 -0.2442 -0.9487
vn -0.6182 -0.4855 0.6182
vn -0.5499 -0.6287 0.5499
vn 0.6055 0.5166 -0.6055
vn 0.5499 0.6287 -0.5499
vn -0.4495 0.7719 0.4495
vn 0.4495 -0.7719 -0.4495
vn 0.4176 0.3584 0.8350
vn 0.8130 -0.2442 0.5286
vn -0.8350 0.3584 -0.4176
vn -0.5286 -0.2442 -0.8130
vn -0.0000 -0.4855 0.8743
vn 0.0000 -0.6287 0.7776
vn 0.0000 0.5166 -0.8562
vn 0.0000 0.6287 -0.7776
vn 0.0000 0.7719 0.6357
vn 0.0000 -0.7719 -0.6357
vn 0.8857 0.3584 0.2951
vn 0.9487 -0.2442 -0.2011
vn -0.8857 0.3584 0.2951
vn -0.9487 -0.2442 -0.2011
vn 0.6182 -0.4855 0.6182
vn 0.5499 -0.6287 0.5499
vn -0.6055 0.5166 -0.6055
vn -0.5499 0.6287 -0.5499
vn 0.4495 0.7719 0.4495
vn -0.4495 -0.7719 -0.4495
vn 0.8350 0.3584 -0.4176
vn 0.5286 -0.2442 -0.8130
vn -0.4176 0.3584 0.8350
vn -0.8130 -0.2442 0.5286
vn 0.8743 -0.4855 0.0000
vn 0.7776 -0.6287 0.0000
vn -0.8562 0.5166 -0.0000
vn -0.7776 0.6287 -0.0000
vn 0.6357 0.7719 -0.0000
vn -0.6357 -0.7719 -0.0000
vn 0.2951 0.3584 -0.8857
vn -0.2011 -0.2442 -0.9487
vn 0.2951 0.3584 0.8857
vn -0.2011 -0.2442 0.9487
usemtl Dark
s off
f 217//99 218//99 216//99 214//99
f 213//100 215//100 218//100 217//100
f 221//101 222//101 223//101 224//101
f 220//102 221//102 224//102 219//102
f 214//103 216//103 223//103 222//103
f 215//104 213//104 220//104 219//104
f 216//105 218//105 224//105 223//105
f 218//106 215//106 219//106 224//106
f 217//107 214//107 222//107 221//107
f 213//108 217//108 221//108 220//108
f 229//109 230//109 228//109 226//109
f 225//110 227//110 230//110 229//110
f 233//111 234//111 235//111 236//111
f 232//112 233//112 236//112 231//112
f 226//113 228//113 235//113 234//113
f 227//114 225//114 232//114 231//114
f 228//115 230//115 236//115 235//115
f 230//116 227//116 231//116 236//116
f 229//117 226//117 234//117 233//117
f 225//118 229//118 233//118 232//118
f 241//119 242//119 240//119 238//119
f 237//120 239//120 242//120 241//120
f 245//121 246//121 247//121 248//121
f 244//122 245//122 248//122 243//122
f 238//123 240//123 247//123 246//123
f 239//124 237//124 244//124 243//124
f 240//125 242//125 248//125 247//125
f 242//126 239//126 243//126 248//126
f 241//127 238//127 246//127 245//127
f 237//128 241//128 245//128 244//128
f 253//129 254//129 252//129 250//129
f 249//130 251//130 254//130 253//130
f 257//131 258//131 259//131 260//131
f 256//132 257//132 260//132 255//132
f 250//133 252//133 259//133 258//133
f 251//134 249//134 256//134 255//134
f 252//135 254//135 260//135 259//135
f 254//136 251//136 255//136 260//136
f 253//137 250//137 258//137 257//137
f 249//138 253//138 257//138 256//138
f 265//139 266//139 264//139 262//139
f 261//140 263//140 266//140 265//140
f 269//141 270//141 271//141 272//141
f 268//142 269//142 272//142 267//142
f 262//143 264//143 271//143 270//143
f 263//144 261//144 268//144 267//144
f 264//145 266//145 272//145 271//145
f 266//146 263//146 267//146 272//146
f 265//147 262//147 270//147 269//147
f 261//148 265//148 269//148 268//148
f 277//149 278//149 276//149 274//149
f 273//150 275//150 278//150 277//150
f 281//151 282//151 283//151 284//151
f 280//152 281//152 284//152 279//152
f 274//153 276//153 283//153 282//153
f 275//154 273//154 280//154 279//154
f 276//155 278//155 284//155 283//155
f 278//156 275//156 279//156 284//156
f 277//157 274//157 282//157 281//157
f 273//158 277//158 281//158 280//158
f 289//159 290//159 288//159 286//159
f 285//160 287//160 290//160 289//160
f 293//161 294//161 295//161 296//161
f 292//162 293//162 296//162 291//162
f 286//163 288//163 295//163 294//163
f 287//164 285//164 292//164 291//164
f 288//165 290//165 296//165 295//165
f 290//166 287//166 291//166 296//166
f 289//167 286//167 294//167 293//167
f 285//168 289//168 293//168 292//168
f 301//169 302//169 300//169 298//169
f 297//170 299//170 302//170 301//170
f 305//171 306//171 307//171 308//171
f 304//172 305//172 308//172 303//172
f 298//173 300//173 307//173 306//173
f 299//174 297//174 304//174 303//174
f 300//175 302//175 308//175 307//175
f 302//176 299//176 303//176 308//176
f 301//177 298//177 306//177 305//177
f 297//178 301//178 305//178 304//178
