{
	"asset":{
		"generator":"Khronos glTF Blender I/O v4.0.44",
		"version":"2.0"
	},
	"scene":0,
	"scenes":[
		{
			"name":"Scene",
			"nodes":[
				0
			]
		}
	],
	"nodes":[
		{
			"mesh":0,
			"name":"Card_back"
		}
	],
	"materials":[
		{
			"doubleSided":true,
			"name":"Atlas_Diffuse",
			"pbrMetallicRoughness":{
				"baseColorTexture":{
					"index":0
				},
				"metallicFactor":0
			}
		}
	],
	"meshes":[
		{
			"name":"Plane.187",
			"primitives":[
				{
					"attributes":{
						"POSITION":0,
						"NORMAL":1,
						"TEXCOORD_0":2
					},
					"indices":3,
					"material":0
				}
			]
		}
	],
	"textures":[
		{
			"sampler":0,
			"source":0
		}
	],
	"images":[
		{
			"mimeType":"image/png",
			"name":"Cards_Atlas",
			"uri":"Cards_Atlas.png"
		}
	],
	"accessors":[
		{
			"bufferView":0,
			"componentType":5126,
			"count":3036,
			"max":[
				1.1475383043289185,
				1.6064444780349731,
				3.732169489012449e-07
			],
			"min":[
				-1.1475383043289185,
				-1.6064444780349731,
				-0.1843981146812439
			],
			"type":"VEC3"
		},
		{
			"bufferView":1,
			"componentType":5126,
			"count":3036,
			"type":"VEC3"
		},
		{
			"bufferView":2,
			"componentType":5126,
			"count":3036,
			"type":"VEC2"
		},
		{
			"bufferView":3,
			"componentType":5123,
			"count":11508,
			"type":"SCALAR"
		}
	],
	"bufferViews":[
		{
			"buffer":0,
			"byteLength":36432,
			"byteOffset":0,
			"target":34962
		},
		{
			"buffer":0,
			"byteLength":36432,
			"byteOffset":36432,
			"target":34962
		},
		{
			"buffer":0,
			"byteLength":24288,
			"byteOffset":72864,
			"target":34962
		},
		{
			"buffer":0,
			"byteLength":23016,
			"byteOffset":97152,
			"target":34963
		}
	],
	"samplers":[
		{
			"magFilter":9729,
			"minFilter":9987
		}
	],
	"buffers":[
		{
			"byteLength":120168,
			"uri":"0_Card_back.bin"
		}
	]
}
