{
	"asset":{
		"generator":"Khronos glTF Blender I/O v4.0.44",
		"version":"2.0"
	},
	"scene":0,
	"scenes":[
		{
			"name":"Scene",
			"nodes":[
				0,
				1
			]
		}
	],
	"nodes":[
		{
			"mesh":0,
			"name":"10_Beehive_bg"
		},
		{
			"mesh":1,
			"name":"10_Beehive"
		}
	],
	"materials":[
		{
			"doubleSided":true,
			"name":"Atlas_Diffuse",
			"pbrMetallicRoughness":{
				"baseColorTexture":{
					"index":0
				},
				"metallicFactor":0
			}
		},
		{
			"doubleSided":true,
			"emissiveFactor":[
				1,
				1,
				1
			],
			"emissiveTexture":{
				"index":1
			},
			"name":"Atlas_Unlit",
			"pbrMetallicRoughness":{
				"baseColorFactor":[
					0,
					0,
					0,
					1
				]
			}
		}
	],
	"meshes":[
		{
			"name":"Plane.004",
			"primitives":[
				{
					"attributes":{
						"POSITION":0,
						"NORMAL":1,
						"TEXCOORD_0":2
					},
					"indices":3,
					"material":0
				}
			]
		},
		{
			"name":"Cylinder.036",
			"primitives":[
				{
					"attributes":{
						"POSITION":4,
						"NORMAL":5,
						"TEXCOORD_0":6
					},
					"indices":7,
					"material":1
				},
				{
					"attributes":{
						"POSITION":8,
						"NORMAL":9,
						"TEXCOORD_0":10
					},
					"indices":11,
					"material":0
				}
			]
		}
	],
	"textures":[
		{
			"sampler":0,
			"source":0
		},
		{
			"sampler":0,
			"source":0
		}
	],
	"images":[
		{
			"mimeType":"image/png",
			"name":"Cards_Atlas",
			"uri":"Cards_Atlas.png"
		}
	],
	"accessors":[
		{
			"bufferView":0,
			"componentType":5126,
			"count":32,
			"max":[
				1.3787049055099487,
				1.7539122104644775,
				-0.09858018159866333
			],
			"min":[
				-1.3787049055099487,
				-1.7558696269989014,
				-1.5580112934112549
			],
			"type":"VEC3"
		},
		{
			"bufferView":1,
			"componentType":5126,
			"count":32,
			"type":"VEC3"
		},
		{
			"bufferView":2,
			"componentType":5126,
			"count":32,
			"type":"VEC2"
		},
		{
			"bufferView":3,
			"componentType":5123,
			"count":114,
			"type":"SCALAR"
		},
		{
			"bufferView":4,
			"componentType":5126,
			"count":295,
			"max":[
				0.8622922301292419,
				0.2647711932659149,
				-0.2888234853744507
			],
			"min":[
				-0.7576500773429871,
				-1.1569799184799194,
				-0.638006329536438
			],
			"type":"VEC3"
		},
		{
			"bufferView":5,
			"componentType":5126,
			"count":295,
			"type":"VEC3"
		},
		{
			"bufferView":6,
			"componentType":5126,
			"count":295,
			"type":"VEC2"
		},
		{
			"bufferView":7,
			"componentType":5123,
			"count":1170,
			"type":"SCALAR"
		},
		{
			"bufferView":8,
			"componentType":5126,
			"count":7294,
			"max":[
				1.3668007850646973,
				1.7441928386688232,
				-0.11608123779296875
			],
			"min":[
				-1.377286672592163,
				-1.7491520643234253,
				-1.5298084020614624
			],
			"type":"VEC3"
		},
		{
			"bufferView":9,
			"componentType":5126,
			"count":7294,
			"type":"VEC3"
		},
		{
			"bufferView":10,
			"componentType":5126,
			"count":7294,
			"type":"VEC2"
		},
		{
			"bufferView":11,
			"componentType":5123,
			"count":32181,
			"type":"SCALAR"
		}
	],
	"bufferViews":[
		{
			"buffer":0,
			"byteLength":384,
			"byteOffset":0,
			"target":34962
		},
		{
			"buffer":0,
			"byteLength":384,
			"byteOffset":384,
			"target":34962
		},
		{
			"buffer":0,
			"byteLength":256,
			"byteOffset":768,
			"target":34962
		},
		{
			"buffer":0,
			"byteLength":228,
			"byteOffset":1024,
			"target":34963
		},
		{
			"buffer":0,
			"byteLength":3540,
			"byteOffset":1252,
			"target":34962
		},
		{
			"buffer":0,
			"byteLength":3540,
			"byteOffset":4792,
			"target":34962
		},
		{
			"buffer":0,
			"byteLength":2360,
			"byteOffset":8332,
			"target":34962
		},
		{
			"buffer":0,
			"byteLength":2340,
			"byteOffset":10692,
			"target":34963
		},
		{
			"buffer":0,
			"byteLength":87528,
			"byteOffset":13032,
			"target":34962
		},
		{
			"buffer":0,
			"byteLength":87528,
			"byteOffset":100560,
			"target":34962
		},
		{
			"buffer":0,
			"byteLength":58352,
			"byteOffset":188088,
			"target":34962
		},
		{
			"buffer":0,
			"byteLength":64362,
			"byteOffset":246440,
			"target":34963
		}
	],
	"samplers":[
		{
			"magFilter":9729,
			"minFilter":9987
		}
	],
	"buffers":[
		{
			"byteLength":310804,
			"uri":"10_Beehive.bin"
		}
	]
}
