{
	"asset":{
		"generator":"Khronos glTF Blender I/O v4.0.44",
		"version":"2.0"
	},
	"scene":0,
	"scenes":[
		{
			"name":"Scene",
			"nodes":[
				0,
				1
			]
		}
	],
	"nodes":[
		{
			"mesh":0,
			"name":"11_Polinization_bg"
		},
		{
			"mesh":1,
			"name":"11_Polinization",
			"rotation":[
				0,
				0,
				0.07072626054286957,
				0.9974957704544067
			],
			"scale":[
				0.07515417784452438,
				0.1548834890127182,
				0.07515418529510498
			]
		}
	],
	"materials":[
		{
			"doubleSided":true,
			"name":"Atlas_Diffuse",
			"pbrMetallicRoughness":{
				"baseColorTexture":{
					"index":0
				},
				"metallicFactor":0
			}
		},
		{
			"doubleSided":true,
			"emissiveFactor":[
				1,
				1,
				1
			],
			"emissiveTexture":{
				"index":1
			},
			"name":"Atlas_Unlit",
			"pbrMetallicRoughness":{
				"baseColorFactor":[
					0,
					0,
					0,
					1
				]
			}
		}
	],
	"meshes":[
		{
			"name":"Plane.461",
			"primitives":[
				{
					"attributes":{
						"POSITION":0,
						"NORMAL":1,
						"TEXCOORD_0":2
					},
					"indices":3,
					"material":0
				}
			]
		},
		{
			"name":"Cube.033",
			"primitives":[
				{
					"attributes":{
						"POSITION":4,
						"NORMAL":5,
						"TEXCOORD_0":6
					},
					"indices":7,
					"material":0
				},
				{
					"attributes":{
						"POSITION":8,
						"NORMAL":9,
						"TEXCOORD_0":10
					},
					"indices":11,
					"material":1
				}
			]
		}
	],
	"textures":[
		{
			"sampler":0,
			"source":0
		},
		{
			"sampler":0,
			"source":0
		}
	],
	"images":[
		{
			"mimeType":"image/png",
			"name":"Cards_Atlas",
			"uri":"Cards_Atlas.png"
		}
	],
	"accessors":[
		{
			"bufferView":0,
			"componentType":5126,
			"count":36,
			"max":[
				1.3787049055099487,
				1.7539122104644775,
				-0.09858018159866333
			],
			"min":[
				-1.3787049055099487,
				-1.7558696269989014,
				-1.5580112934112549
			],
			"type":"VEC3"
		},
		{
			"bufferView":1,
			"componentType":5126,
			"count":36,
			"type":"VEC3"
		},
		{
			"bufferView":2,
			"componentType":5126,
			"count":36,
			"type":"VEC2"
		},
		{
			"bufferView":3,
			"componentType":5123,
			"count":114,
			"type":"SCALAR"
		},
		{
			"bufferView":4,
			"componentType":5126,
			"count":6158,
			"max":[
				15.545333862304688,
				8.529380798339844,
				-1.2378405332565308
			],
			"min":[
				-21.136878967285156,
				-11.52719497680664,
				-20.706968307495117
			],
			"type":"VEC3"
		},
		{
			"bufferView":5,
			"componentType":5126,
			"count":6158,
			"type":"VEC3"
		},
		{
			"bufferView":6,
			"componentType":5126,
			"count":6158,
			"type":"VEC2"
		},
		{
			"bufferView":7,
			"componentType":5123,
			"count":32694,
			"type":"SCALAR"
		},
		{
			"bufferView":8,
			"componentType":5126,
			"count":135,
			"max":[
				1.0676487684249878,
				5.282127380371094,
				-6.003430366516113
			],
			"min":[
				-5.323253631591797,
				3.6638545989990234,
				-10.17171859741211
			],
			"type":"VEC3"
		},
		{
			"bufferView":9,
			"componentType":5126,
			"count":135,
			"type":"VEC3"
		},
		{
			"bufferView":10,
			"componentType":5126,
			"count":135,
			"type":"VEC2"
		},
		{
			"bufferView":11,
			"componentType":5123,
			"count":648,
			"type":"SCALAR"
		}
	],
	"bufferViews":[
		{
			"buffer":0,
			"byteLength":432,
			"byteOffset":0,
			"target":34962
		},
		{
			"buffer":0,
			"byteLength":432,
			"byteOffset":432,
			"target":34962
		},
		{
			"buffer":0,
			"byteLength":288,
			"byteOffset":864,
			"target":34962
		},
		{
			"buffer":0,
			"byteLength":228,
			"byteOffset":1152,
			"target":34963
		},
		{
			"buffer":0,
			"byteLength":73896,
			"byteOffset":1380,
			"target":34962
		},
		{
			"buffer":0,
			"byteLength":73896,
			"byteOffset":75276,
			"target":34962
		},
		{
			"buffer":0,
			"byteLength":49264,
			"byteOffset":149172,
			"target":34962
		},
		{
			"buffer":0,
			"byteLength":65388,
			"byteOffset":198436,
			"target":34963
		},
		{
			"buffer":0,
			"byteLength":1620,
			"byteOffset":263824,
			"target":34962
		},
		{
			"buffer":0,
			"byteLength":1620,
			"byteOffset":265444,
			"target":34962
		},
		{
			"buffer":0,
			"byteLength":1080,
			"byteOffset":267064,
			"target":34962
		},
		{
			"buffer":0,
			"byteLength":1296,
			"byteOffset":268144,
			"target":34963
		}
	],
	"samplers":[
		{
			"magFilter":9729,
			"minFilter":9987
		}
	],
	"buffers":[
		{
			"byteLength":269440,
			"uri":"11_Polinization.bin"
		}
	]
}
