{
	"asset":{
		"generator":"Khronos glTF Blender I/O v4.0.44",
		"version":"2.0"
	},
	"scene":0,
	"scenes":[
		{
			"name":"Scene",
			"nodes":[
				0,
				1
			]
		}
	],
	"nodes":[
		{
			"mesh":0,
			"name":"12_Mimic_bg"
		},
		{
			"mesh":1,
			"name":"12_Mimic",
			"scale":[
				1.2935750484466553,
				1.2935750484466553,
				1.2935750484466553
			]
		}
	],
	"materials":[
		{
			"doubleSided":true,
			"name":"Atlas_Diffuse",
			"pbrMetallicRoughness":{
				"baseColorTexture":{
					"index":0
				},
				"metallicFactor":0
			}
		},
		{
			"doubleSided":true,
			"emissiveFactor":[
				1,
				1,
				1
			],
			"emissiveTexture":{
				"index":1
			},
			"name":"Atlas_Unlit",
			"pbrMetallicRoughness":{
				"baseColorFactor":[
					0,
					0,
					0,
					1
				]
			}
		}
	],
	"meshes":[
		{
			"name":"Plane.470",
			"primitives":[
				{
					"attributes":{
						"POSITION":0,
						"NORMAL":1,
						"TEXCOORD_0":2
					},
					"indices":3,
					"material":0
				}
			]
		},
		{
			"name":"Cube.696",
			"primitives":[
				{
					"attributes":{
						"POSITION":4,
						"NORMAL":5,
						"TEXCOORD_0":6,
						"TEXCOORD_1":7
					},
					"indices":8,
					"material":0
				},
				{
					"attributes":{
						"POSITION":9,
						"NORMAL":10,
						"TEXCOORD_0":11,
						"TEXCOORD_1":12
					},
					"indices":13,
					"material":1
				}
			]
		}
	],
	"textures":[
		{
			"sampler":0,
			"source":0
		},
		{
			"sampler":0,
			"source":0
		}
	],
	"images":[
		{
			"mimeType":"image/png",
			"name":"Cards_Atlas",
			"uri":"Cards_Atlas.png"
		}
	],
	"accessors":[
		{
			"bufferView":0,
			"componentType":5126,
			"count":44,
			"max":[
				1.3787049055099487,
				1.7539122104644775,
				-0.09858018159866333
			],
			"min":[
				-1.3787049055099487,
				-1.7558696269989014,
				-1.5580112934112549
			],
			"type":"VEC3"
		},
		{
			"bufferView":1,
			"componentType":5126,
			"count":44,
			"type":"VEC3"
		},
		{
			"bufferView":2,
			"componentType":5126,
			"count":44,
			"type":"VEC2"
		},
		{
			"bufferView":3,
			"componentType":5123,
			"count":114,
			"type":"SCALAR"
		},
		{
			"bufferView":4,
			"componentType":5126,
			"count":10385,
			"max":[
				0.8659937381744385,
				0.9803674221038818,
				-0.009096373803913593
			],
			"min":[
				-0.8001325130462646,
				-1.2148524522781372,
				-1.1893908977508545
			],
			"type":"VEC3"
		},
		{
			"bufferView":5,
			"componentType":5126,
			"count":10385,
			"type":"VEC3"
		},
		{
			"bufferView":6,
			"componentType":5126,
			"count":10385,
			"type":"VEC2"
		},
		{
			"bufferView":7,
			"componentType":5126,
			"count":10385,
			"type":"VEC2"
		},
		{
			"bufferView":8,
			"componentType":5123,
			"count":32361,
			"type":"SCALAR"
		},
		{
			"bufferView":9,
			"componentType":5126,
			"count":463,
			"max":[
				1.0626574754714966,
				1.2493771314620972,
				-0.08687484264373779
			],
			"min":[
				-1.0645419359207153,
				-1.2181181907653809,
				-1.189892053604126
			],
			"type":"VEC3"
		},
		{
			"bufferView":10,
			"componentType":5126,
			"count":463,
			"type":"VEC3"
		},
		{
			"bufferView":11,
			"componentType":5126,
			"count":463,
			"type":"VEC2"
		},
		{
			"bufferView":12,
			"componentType":5126,
			"count":463,
			"type":"VEC2"
		},
		{
			"bufferView":13,
			"componentType":5123,
			"count":1782,
			"type":"SCALAR"
		}
	],
	"bufferViews":[
		{
			"buffer":0,
			"byteLength":528,
			"byteOffset":0,
			"target":34962
		},
		{
			"buffer":0,
			"byteLength":528,
			"byteOffset":528,
			"target":34962
		},
		{
			"buffer":0,
			"byteLength":352,
			"byteOffset":1056,
			"target":34962
		},
		{
			"buffer":0,
			"byteLength":228,
			"byteOffset":1408,
			"target":34963
		},
		{
			"buffer":0,
			"byteLength":124620,
			"byteOffset":1636,
			"target":34962
		},
		{
			"buffer":0,
			"byteLength":124620,
			"byteOffset":126256,
			"target":34962
		},
		{
			"buffer":0,
			"byteLength":83080,
			"byteOffset":250876,
			"target":34962
		},
		{
			"buffer":0,
			"byteLength":83080,
			"byteOffset":333956,
			"target":34962
		},
		{
			"buffer":0,
			"byteLength":64722,
			"byteOffset":417036,
			"target":34963
		},
		{
			"buffer":0,
			"byteLength":5556,
			"byteOffset":481760,
			"target":34962
		},
		{
			"buffer":0,
			"byteLength":5556,
			"byteOffset":487316,
			"target":34962
		},
		{
			"buffer":0,
			"byteLength":3704,
			"byteOffset":492872,
			"target":34962
		},
		{
			"buffer":0,
			"byteLength":3704,
			"byteOffset":496576,
			"target":34962
		},
		{
			"buffer":0,
			"byteLength":3564,
			"byteOffset":500280,
			"target":34963
		}
	],
	"samplers":[
		{
			"magFilter":9729,
			"minFilter":9987
		}
	],
	"buffers":[
		{
			"byteLength":503844,
			"uri":"12_Mimic.bin"
		}
	]
}
