{
	"asset":{
		"generator":"Khronos glTF Blender I/O v4.0.44",
		"version":"2.0"
	},
	"scene":0,
	"scenes":[
		{
			"name":"Scene",
			"nodes":[
				0,
				1
			]
		}
	],
	"nodes":[
		{
			"mesh":0,
			"name":"13_SeaMonster_bg"
		},
		{
			"mesh":1,
			"name":"13_SeaMonster"
		}
	],
	"materials":[
		{
			"doubleSided":true,
			"name":"Atlas_Diffuse",
			"pbrMetallicRoughness":{
				"baseColorTexture":{
					"index":0
				},
				"metallicFactor":0
			}
		},
		{
			"doubleSided":true,
			"emissiveFactor":[
				1,
				1,
				1
			],
			"emissiveTexture":{
				"index":1
			},
			"name":"Atlas_Unlit",
			"pbrMetallicRoughness":{
				"baseColorFactor":[
					0,
					0,
					0,
					1
				]
			}
		}
	],
	"meshes":[
		{
			"name":"Plane.005",
			"primitives":[
				{
					"attributes":{
						"POSITION":0,
						"NORMAL":1,
						"TEXCOORD_0":2
					},
					"indices":3,
					"material":0
				}
			]
		},
		{
			"name":"mesh.000",
			"primitives":[
				{
					"attributes":{
						"POSITION":4,
						"NORMAL":5,
						"TEXCOORD_0":6
					},
					"indices":7,
					"material":1
				},
				{
					"attributes":{
						"POSITION":8,
						"NORMAL":9,
						"TEXCOORD_0":10
					},
					"indices":11,
					"material":0
				}
			]
		}
	],
	"textures":[
		{
			"sampler":0,
			"source":0
		},
		{
			"sampler":0,
			"source":0
		}
	],
	"images":[
		{
			"mimeType":"image/png",
			"name":"Cards_Atlas",
			"uri":"Cards_Atlas.png"
		}
	],
	"accessors":[
		{
			"bufferView":0,
			"componentType":5126,
			"count":32,
			"max":[
				1.3787049055099487,
				1.7539122104644775,
				-0.09858018159866333
			],
			"min":[
				-1.3787049055099487,
				-1.7558696269989014,
				-1.5580112934112549
			],
			"type":"VEC3"
		},
		{
			"bufferView":1,
			"componentType":5126,
			"count":32,
			"type":"VEC3"
		},
		{
			"bufferView":2,
			"componentType":5126,
			"count":32,
			"type":"VEC2"
		},
		{
			"bufferView":3,
			"componentType":5123,
			"count":114,
			"type":"SCALAR"
		},
		{
			"bufferView":4,
			"componentType":5126,
			"count":11843,
			"max":[
				-0.3099912106990814,
				-0.5712096095085144,
				-0.4321202039718628
			],
			"min":[
				-0.36086875200271606,
				-0.7278012633323669,
				-0.48578205704689026
			],
			"type":"VEC3"
		},
		{
			"bufferView":5,
			"componentType":5126,
			"count":11843,
			"type":"VEC3"
		},
		{
			"bufferView":6,
			"componentType":5126,
			"count":11843,
			"type":"VEC2"
		},
		{
			"bufferView":7,
			"componentType":5123,
			"count":19536,
			"type":"SCALAR"
		},
		{
			"bufferView":8,
			"componentType":5126,
			"count":32580,
			"max":[
				1.3718500137329102,
				0.88139808177948,
				-0.10026612877845764
			],
			"min":[
				-1.3744806051254272,
				-1.7503422498703003,
				-1.551723837852478
			],
			"type":"VEC3"
		},
		{
			"bufferView":9,
			"componentType":5126,
			"count":32580,
			"type":"VEC3"
		},
		{
			"bufferView":10,
			"componentType":5126,
			"count":32580,
			"type":"VEC2"
		},
		{
			"bufferView":11,
			"componentType":5123,
			"count":86112,
			"type":"SCALAR"
		}
	],
	"bufferViews":[
		{
			"buffer":0,
			"byteLength":384,
			"byteOffset":0,
			"target":34962
		},
		{
			"buffer":0,
			"byteLength":384,
			"byteOffset":384,
			"target":34962
		},
		{
			"buffer":0,
			"byteLength":256,
			"byteOffset":768,
			"target":34962
		},
		{
			"buffer":0,
			"byteLength":228,
			"byteOffset":1024,
			"target":34963
		},
		{
			"buffer":0,
			"byteLength":142116,
			"byteOffset":1252,
			"target":34962
		},
		{
			"buffer":0,
			"byteLength":142116,
			"byteOffset":143368,
			"target":34962
		},
		{
			"buffer":0,
			"byteLength":94744,
			"byteOffset":285484,
			"target":34962
		},
		{
			"buffer":0,
			"byteLength":39072,
			"byteOffset":380228,
			"target":34963
		},
		{
			"buffer":0,
			"byteLength":390960,
			"byteOffset":419300,
			"target":34962
		},
		{
			"buffer":0,
			"byteLength":390960,
			"byteOffset":810260,
			"target":34962
		},
		{
			"buffer":0,
			"byteLength":260640,
			"byteOffset":1201220,
			"target":34962
		},
		{
			"buffer":0,
			"byteLength":172224,
			"byteOffset":1461860,
			"target":34963
		}
	],
	"samplers":[
		{
			"magFilter":9729,
			"minFilter":9987
		}
	],
	"buffers":[
		{
			"byteLength":1634084,
			"uri":"13_SeaMonster.bin"
		}
	]
}
