{
	"asset":{
		"generator":"Khronos glTF Blender I/O v4.0.44",
		"version":"2.0"
	},
	"scene":0,
	"scenes":[
		{
			"name":"Scene",
			"nodes":[
				0,
				1
			]
		}
	],
	"nodes":[
		{
			"mesh":0,
			"name":"15_Cult_bg"
		},
		{
			"mesh":1,
			"name":"15_Cult",
			"rotation":[
				-0.00803318526595831,
				-0.7015246748924255,
				-0.13980115950107574,
				0.6987519264221191
			],
			"scale":[
				0.2504202127456665,
				0.2504202127456665,
				0.2504202127456665
			]
		}
	],
	"materials":[
		{
			"doubleSided":true,
			"name":"Atlas_Diffuse",
			"pbrMetallicRoughness":{
				"baseColorTexture":{
					"index":0
				},
				"metallicFactor":0
			}
		},
		{
			"doubleSided":true,
			"emissiveFactor":[
				1,
				1,
				1
			],
			"emissiveTexture":{
				"index":1
			},
			"name":"Atlas_Unlit",
			"pbrMetallicRoughness":{
				"baseColorFactor":[
					0,
					0,
					0,
					1
				]
			}
		}
	],
	"meshes":[
		{
			"name":"Plane.007",
			"primitives":[
				{
					"attributes":{
						"POSITION":0,
						"NORMAL":1,
						"TEXCOORD_0":2
					},
					"indices":3,
					"material":0
				}
			]
		},
		{
			"name":"Cube.463",
			"primitives":[
				{
					"attributes":{
						"POSITION":4,
						"NORMAL":5,
						"TEXCOORD_0":6,
						"TEXCOORD_1":7,
						"TEXCOORD_2":8
					},
					"indices":9,
					"material":0
				},
				{
					"attributes":{
						"POSITION":10,
						"NORMAL":11,
						"TEXCOORD_0":12,
						"TEXCOORD_1":13,
						"TEXCOORD_2":14
					},
					"indices":15,
					"material":1
				}
			]
		}
	],
	"textures":[
		{
			"sampler":0,
			"source":0
		},
		{
			"sampler":0,
			"source":0
		}
	],
	"images":[
		{
			"mimeType":"image/png",
			"name":"Cards_Atlas",
			"uri":"Cards_Atlas.png"
		}
	],
	"accessors":[
		{
			"bufferView":0,
			"componentType":5126,
			"count":32,
			"max":[
				1.3787049055099487,
				1.7539122104644775,
				-0.09858018159866333
			],
			"min":[
				-1.3787049055099487,
				-1.7558696269989014,
				-1.5580112934112549
			],
			"type":"VEC3"
		},
		{
			"bufferView":1,
			"componentType":5126,
			"count":32,
			"type":"VEC3"
		},
		{
			"bufferView":2,
			"componentType":5126,
			"count":32,
			"type":"VEC2"
		},
		{
			"bufferView":3,
			"componentType":5123,
			"count":114,
			"type":"SCALAR"
		},
		{
			"bufferView":4,
			"componentType":5126,
			"count":13314,
			"max":[
				0.9077616333961487,
				3.4298171997070312,
				4.949606895446777
			],
			"min":[
				-6.274800777435303,
				-7.499865531921387,
				-6.6941938400268555
			],
			"type":"VEC3"
		},
		{
			"bufferView":5,
			"componentType":5126,
			"count":13314,
			"type":"VEC3"
		},
		{
			"bufferView":6,
			"componentType":5126,
			"count":13314,
			"type":"VEC2"
		},
		{
			"bufferView":7,
			"componentType":5126,
			"count":13314,
			"type":"VEC2"
		},
		{
			"bufferView":8,
			"componentType":5126,
			"count":13314,
			"type":"VEC2"
		},
		{
			"bufferView":9,
			"componentType":5123,
			"count":43944,
			"type":"SCALAR"
		},
		{
			"bufferView":10,
			"componentType":5126,
			"count":311,
			"max":[
				-3.022695302963257,
				5.961862564086914,
				3.576017379760742
			],
			"min":[
				-7.133815765380859,
				-6.16785192489624,
				-5.073620796203613
			],
			"type":"VEC3"
		},
		{
			"bufferView":11,
			"componentType":5126,
			"count":311,
			"type":"VEC3"
		},
		{
			"bufferView":12,
			"componentType":5126,
			"count":311,
			"type":"VEC2"
		},
		{
			"bufferView":13,
			"componentType":5126,
			"count":311,
			"type":"VEC2"
		},
		{
			"bufferView":14,
			"componentType":5126,
			"count":311,
			"type":"VEC2"
		},
		{
			"bufferView":15,
			"componentType":5123,
			"count":1032,
			"type":"SCALAR"
		}
	],
	"bufferViews":[
		{
			"buffer":0,
			"byteLength":384,
			"byteOffset":0,
			"target":34962
		},
		{
			"buffer":0,
			"byteLength":384,
			"byteOffset":384,
			"target":34962
		},
		{
			"buffer":0,
			"byteLength":256,
			"byteOffset":768,
			"target":34962
		},
		{
			"buffer":0,
			"byteLength":228,
			"byteOffset":1024,
			"target":34963
		},
		{
			"buffer":0,
			"byteLength":159768,
			"byteOffset":1252,
			"target":34962
		},
		{
			"buffer":0,
			"byteLength":159768,
			"byteOffset":161020,
			"target":34962
		},
		{
			"buffer":0,
			"byteLength":106512,
			"byteOffset":320788,
			"target":34962
		},
		{
			"buffer":0,
			"byteLength":106512,
			"byteOffset":427300,
			"target":34962
		},
		{
			"buffer":0,
			"byteLength":106512,
			"byteOffset":533812,
			"target":34962
		},
		{
			"buffer":0,
			"byteLength":87888,
			"byteOffset":640324,
			"target":34963
		},
		{
			"buffer":0,
			"byteLength":3732,
			"byteOffset":728212,
			"target":34962
		},
		{
			"buffer":0,
			"byteLength":3732,
			"byteOffset":731944,
			"target":34962
		},
		{
			"buffer":0,
			"byteLength":2488,
			"byteOffset":735676,
			"target":34962
		},
		{
			"buffer":0,
			"byteLength":2488,
			"byteOffset":738164,
			"target":34962
		},
		{
			"buffer":0,
			"byteLength":2488,
			"byteOffset":740652,
			"target":34962
		},
		{
			"buffer":0,
			"byteLength":2064,
			"byteOffset":743140,
			"target":34963
		}
	],
	"samplers":[
		{
			"magFilter":9729,
			"minFilter":9987
		}
	],
	"buffers":[
		{
			"byteLength":745204,
			"uri":"15_Cult.bin"
		}
	]
}
