{
	"asset":{
		"generator":"Khronos glTF Blender I/O v4.0.44",
		"version":"2.0"
	},
	"scene":0,
	"scenes":[
		{
			"name":"Scene",
			"nodes":[
				0,
				1
			]
		}
	],
	"nodes":[
		{
			"mesh":0,
			"name":"16_Belltowers_bg"
		},
		{
			"mesh":1,
			"name":"16_Belltowers"
		}
	],
	"materials":[
		{
			"doubleSided":true,
			"name":"Atlas_Diffuse",
			"pbrMetallicRoughness":{
				"baseColorTexture":{
					"index":0
				},
				"metallicFactor":0
			}
		},
		{
			"doubleSided":true,
			"emissiveFactor":[
				1,
				1,
				1
			],
			"emissiveTexture":{
				"index":1
			},
			"name":"Atlas_Unlit",
			"pbrMetallicRoughness":{
				"baseColorFactor":[
					0,
					0,
					0,
					1
				]
			}
		}
	],
	"meshes":[
		{
			"name":"Plane.010",
			"primitives":[
				{
					"attributes":{
						"POSITION":0,
						"NORMAL":1,
						"TEXCOORD_0":2
					},
					"indices":3,
					"material":0
				}
			]
		},
		{
			"name":"Plane.449",
			"primitives":[
				{
					"attributes":{
						"POSITION":4,
						"NORMAL":5,
						"TEXCOORD_0":6
					},
					"indices":7,
					"material":1
				},
				{
					"attributes":{
						"POSITION":8,
						"NORMAL":9,
						"TEXCOORD_0":10
					},
					"indices":11,
					"material":0
				}
			]
		}
	],
	"textures":[
		{
			"sampler":0,
			"source":0
		},
		{
			"sampler":0,
			"source":0
		}
	],
	"images":[
		{
			"mimeType":"image/png",
			"name":"Cards_Atlas",
			"uri":"Cards_Atlas.png"
		}
	],
	"accessors":[
		{
			"bufferView":0,
			"componentType":5126,
			"count":32,
			"max":[
				1.3787049055099487,
				1.7539122104644775,
				-0.09858018159866333
			],
			"min":[
				-1.3787049055099487,
				-1.7558696269989014,
				-1.5580112934112549
			],
			"type":"VEC3"
		},
		{
			"bufferView":1,
			"componentType":5126,
			"count":32,
			"type":"VEC3"
		},
		{
			"bufferView":2,
			"componentType":5126,
			"count":32,
			"type":"VEC2"
		},
		{
			"bufferView":3,
			"componentType":5123,
			"count":114,
			"type":"SCALAR"
		},
		{
			"bufferView":4,
			"componentType":5126,
			"count":869,
			"max":[
				0.8620786666870117,
				1.428733468055725,
				-0.31171858310699463
			],
			"min":[
				-0.9250417947769165,
				-0.8985688090324402,
				-1.5284006595611572
			],
			"type":"VEC3"
		},
		{
			"bufferView":5,
			"componentType":5126,
			"count":869,
			"type":"VEC3"
		},
		{
			"bufferView":6,
			"componentType":5126,
			"count":869,
			"type":"VEC2"
		},
		{
			"bufferView":7,
			"componentType":5123,
			"count":2448,
			"type":"SCALAR"
		},
		{
			"bufferView":8,
			"componentType":5126,
			"count":44313,
			"max":[
				1.3522642850875854,
				1.2343225479125977,
				-0.10505503416061401
			],
			"min":[
				-1.3766698837280273,
				-1.6382275819778442,
				-1.546431303024292
			],
			"type":"VEC3"
		},
		{
			"bufferView":9,
			"componentType":5126,
			"count":44313,
			"type":"VEC3"
		},
		{
			"bufferView":10,
			"componentType":5126,
			"count":44313,
			"type":"VEC2"
		},
		{
			"bufferView":11,
			"componentType":5123,
			"count":87816,
			"type":"SCALAR"
		}
	],
	"bufferViews":[
		{
			"buffer":0,
			"byteLength":384,
			"byteOffset":0,
			"target":34962
		},
		{
			"buffer":0,
			"byteLength":384,
			"byteOffset":384,
			"target":34962
		},
		{
			"buffer":0,
			"byteLength":256,
			"byteOffset":768,
			"target":34962
		},
		{
			"buffer":0,
			"byteLength":228,
			"byteOffset":1024,
			"target":34963
		},
		{
			"buffer":0,
			"byteLength":10428,
			"byteOffset":1252,
			"target":34962
		},
		{
			"buffer":0,
			"byteLength":10428,
			"byteOffset":11680,
			"target":34962
		},
		{
			"buffer":0,
			"byteLength":6952,
			"byteOffset":22108,
			"target":34962
		},
		{
			"buffer":0,
			"byteLength":4896,
			"byteOffset":29060,
			"target":34963
		},
		{
			"buffer":0,
			"byteLength":531756,
			"byteOffset":33956,
			"target":34962
		},
		{
			"buffer":0,
			"byteLength":531756,
			"byteOffset":565712,
			"target":34962
		},
		{
			"buffer":0,
			"byteLength":354504,
			"byteOffset":1097468,
			"target":34962
		},
		{
			"buffer":0,
			"byteLength":175632,
			"byteOffset":1451972,
			"target":34963
		}
	],
	"samplers":[
		{
			"magFilter":9729,
			"minFilter":9987
		}
	],
	"buffers":[
		{
			"byteLength":1627604,
			"uri":"16_Belltowers.bin"
		}
	]
}
