{
	"asset":{
		"generator":"Khronos glTF Blender I/O v4.0.44",
		"version":"2.0"
	},
	"scene":0,
	"scenes":[
		{
			"name":"Scene",
			"nodes":[
				0,
				1
			]
		}
	],
	"nodes":[
		{
			"mesh":0,
			"name":"18_WaterDragon_bg"
		},
		{
			"mesh":1,
			"name":"18_WaterDragon"
		}
	],
	"materials":[
		{
			"doubleSided":true,
			"name":"Atlas_Diffuse",
			"pbrMetallicRoughness":{
				"baseColorTexture":{
					"index":0
				},
				"metallicFactor":0
			}
		},
		{
			"doubleSided":true,
			"emissiveFactor":[
				1,
				1,
				1
			],
			"emissiveTexture":{
				"index":1
			},
			"name":"Atlas_Unlit",
			"pbrMetallicRoughness":{
				"baseColorFactor":[
					0,
					0,
					0,
					1
				]
			}
		}
	],
	"meshes":[
		{
			"name":"Plane.012",
			"primitives":[
				{
					"attributes":{
						"POSITION":0,
						"NORMAL":1,
						"TEXCOORD_0":2
					},
					"indices":3,
					"material":0
				}
			]
		},
		{
			"name":"Plane.420",
			"primitives":[
				{
					"attributes":{
						"POSITION":4,
						"NORMAL":5,
						"TEXCOORD_0":6,
						"TEXCOORD_1":7
					},
					"indices":8,
					"material":0
				},
				{
					"attributes":{
						"POSITION":9,
						"NORMAL":10,
						"TEXCOORD_0":11,
						"TEXCOORD_1":12
					},
					"indices":13,
					"material":1
				}
			]
		}
	],
	"textures":[
		{
			"sampler":0,
			"source":0
		},
		{
			"sampler":0,
			"source":0
		}
	],
	"images":[
		{
			"mimeType":"image/png",
			"name":"Cards_Atlas",
			"uri":"Cards_Atlas.png"
		}
	],
	"accessors":[
		{
			"bufferView":0,
			"componentType":5126,
			"count":32,
			"max":[
				1.3787049055099487,
				1.7539122104644775,
				-0.09858018159866333
			],
			"min":[
				-1.3787049055099487,
				-1.7558696269989014,
				-1.5580112934112549
			],
			"type":"VEC3"
		},
		{
			"bufferView":1,
			"componentType":5126,
			"count":32,
			"type":"VEC3"
		},
		{
			"bufferView":2,
			"componentType":5126,
			"count":32,
			"type":"VEC2"
		},
		{
			"bufferView":3,
			"componentType":5123,
			"count":114,
			"type":"SCALAR"
		},
		{
			"bufferView":4,
			"componentType":5126,
			"count":2961,
			"max":[
				1.3388736248016357,
				1.7487306594848633,
				-0.10746908187866211
			],
			"min":[
				-1.362338662147522,
				-1.7228516340255737,
				-1.5409553050994873
			],
			"type":"VEC3"
		},
		{
			"bufferView":5,
			"componentType":5126,
			"count":2961,
			"type":"VEC3"
		},
		{
			"bufferView":6,
			"componentType":5126,
			"count":2961,
			"type":"VEC2"
		},
		{
			"bufferView":7,
			"componentType":5126,
			"count":2961,
			"type":"VEC2"
		},
		{
			"bufferView":8,
			"componentType":5123,
			"count":14844,
			"type":"SCALAR"
		},
		{
			"bufferView":9,
			"componentType":5126,
			"count":419,
			"max":[
				-0.5422379374504089,
				-0.2736254334449768,
				-0.21974527835845947
			],
			"min":[
				-0.8314328193664551,
				-0.44037216901779175,
				-0.5288488864898682
			],
			"type":"VEC3"
		},
		{
			"bufferView":10,
			"componentType":5126,
			"count":419,
			"type":"VEC3"
		},
		{
			"bufferView":11,
			"componentType":5126,
			"count":419,
			"type":"VEC2"
		},
		{
			"bufferView":12,
			"componentType":5126,
			"count":419,
			"type":"VEC2"
		},
		{
			"bufferView":13,
			"componentType":5123,
			"count":2208,
			"type":"SCALAR"
		}
	],
	"bufferViews":[
		{
			"buffer":0,
			"byteLength":384,
			"byteOffset":0,
			"target":34962
		},
		{
			"buffer":0,
			"byteLength":384,
			"byteOffset":384,
			"target":34962
		},
		{
			"buffer":0,
			"byteLength":256,
			"byteOffset":768,
			"target":34962
		},
		{
			"buffer":0,
			"byteLength":228,
			"byteOffset":1024,
			"target":34963
		},
		{
			"buffer":0,
			"byteLength":35532,
			"byteOffset":1252,
			"target":34962
		},
		{
			"buffer":0,
			"byteLength":35532,
			"byteOffset":36784,
			"target":34962
		},
		{
			"buffer":0,
			"byteLength":23688,
			"byteOffset":72316,
			"target":34962
		},
		{
			"buffer":0,
			"byteLength":23688,
			"byteOffset":96004,
			"target":34962
		},
		{
			"buffer":0,
			"byteLength":29688,
			"byteOffset":119692,
			"target":34963
		},
		{
			"buffer":0,
			"byteLength":5028,
			"byteOffset":149380,
			"target":34962
		},
		{
			"buffer":0,
			"byteLength":5028,
			"byteOffset":154408,
			"target":34962
		},
		{
			"buffer":0,
			"byteLength":3352,
			"byteOffset":159436,
			"target":34962
		},
		{
			"buffer":0,
			"byteLength":3352,
			"byteOffset":162788,
			"target":34962
		},
		{
			"buffer":0,
			"byteLength":4416,
			"byteOffset":166140,
			"target":34963
		}
	],
	"samplers":[
		{
			"magFilter":9729,
			"minFilter":9987
		}
	],
	"buffers":[
		{
			"byteLength":170556,
			"uri":"18_WaterDragon.bin"
		}
	]
}
