{
	"asset":{
		"generator":"Khronos glTF Blender I/O v4.0.44",
		"version":"2.0"
	},
	"scene":0,
	"scenes":[
		{
			"name":"Scene",
			"nodes":[
				0,
				1
			]
		}
	],
	"nodes":[
		{
			"mesh":0,
			"name":"1_Fireball_bg"
		},
		{
			"mesh":1,
			"name":"1_Fireball"
		}
	],
	"materials":[
		{
			"doubleSided":true,
			"name":"Atlas_Diffuse",
			"pbrMetallicRoughness":{
				"baseColorTexture":{
					"index":0
				},
				"metallicFactor":0
			}
		},
		{
			"doubleSided":true,
			"emissiveFactor":[
				1,
				1,
				1
			],
			"emissiveTexture":{
				"index":1
			},
			"name":"Atlas_Unlit",
			"pbrMetallicRoughness":{
				"baseColorFactor":[
					0,
					0,
					0,
					1
				]
			}
		}
	],
	"meshes":[
		{
			"name":"Plane.021",
			"primitives":[
				{
					"attributes":{
						"POSITION":0,
						"NORMAL":1,
						"TEXCOORD_0":2
					},
					"indices":3,
					"material":0
				}
			]
		},
		{
			"name":"Plane.128",
			"primitives":[
				{
					"attributes":{
						"POSITION":4,
						"NORMAL":5,
						"TEXCOORD_0":6
					},
					"indices":7,
					"material":0
				},
				{
					"attributes":{
						"POSITION":8,
						"NORMAL":9,
						"TEXCOORD_0":10
					},
					"indices":11,
					"material":1
				}
			]
		}
	],
	"textures":[
		{
			"sampler":0,
			"source":0
		},
		{
			"sampler":0,
			"source":0
		}
	],
	"images":[
		{
			"mimeType":"image/png",
			"name":"Cards_Atlas",
			"uri":"Cards_Atlas.png"
		}
	],
	"accessors":[
		{
			"bufferView":0,
			"componentType":5126,
			"count":32,
			"max":[
				1.3787049055099487,
				1.7539122104644775,
				-0.00573774753138423
			],
			"min":[
				-1.3787049055099487,
				-1.7558696269989014,
				-1.5580112934112549
			],
			"type":"VEC3"
		},
		{
			"bufferView":1,
			"componentType":5126,
			"count":32,
			"type":"VEC3"
		},
		{
			"bufferView":2,
			"componentType":5126,
			"count":32,
			"type":"VEC2"
		},
		{
			"bufferView":3,
			"componentType":5123,
			"count":114,
			"type":"SCALAR"
		},
		{
			"bufferView":4,
			"componentType":5126,
			"count":309,
			"max":[
				0.39858412742614746,
				-0.3938853144645691,
				-0.5404517650604248
			],
			"min":[
				-0.40923160314559937,
				-1.7504855394363403,
				-1.2033724784851074
			],
			"type":"VEC3"
		},
		{
			"bufferView":5,
			"componentType":5126,
			"count":309,
			"type":"VEC3"
		},
		{
			"bufferView":6,
			"componentType":5126,
			"count":309,
			"type":"VEC2"
		},
		{
			"bufferView":7,
			"componentType":5123,
			"count":1800,
			"type":"SCALAR"
		},
		{
			"bufferView":8,
			"componentType":5126,
			"count":953,
			"max":[
				1.3023831844329834,
				1.7470749616622925,
				-0.47729188203811646
			],
			"min":[
				-1.1108208894729614,
				-1.5719623565673828,
				-1.519107460975647
			],
			"type":"VEC3"
		},
		{
			"bufferView":9,
			"componentType":5126,
			"count":953,
			"type":"VEC3"
		},
		{
			"bufferView":10,
			"componentType":5126,
			"count":953,
			"type":"VEC2"
		},
		{
			"bufferView":11,
			"componentType":5123,
			"count":5223,
			"type":"SCALAR"
		}
	],
	"bufferViews":[
		{
			"buffer":0,
			"byteLength":384,
			"byteOffset":0,
			"target":34962
		},
		{
			"buffer":0,
			"byteLength":384,
			"byteOffset":384,
			"target":34962
		},
		{
			"buffer":0,
			"byteLength":256,
			"byteOffset":768,
			"target":34962
		},
		{
			"buffer":0,
			"byteLength":228,
			"byteOffset":1024,
			"target":34963
		},
		{
			"buffer":0,
			"byteLength":3708,
			"byteOffset":1252,
			"target":34962
		},
		{
			"buffer":0,
			"byteLength":3708,
			"byteOffset":4960,
			"target":34962
		},
		{
			"buffer":0,
			"byteLength":2472,
			"byteOffset":8668,
			"target":34962
		},
		{
			"buffer":0,
			"byteLength":3600,
			"byteOffset":11140,
			"target":34963
		},
		{
			"buffer":0,
			"byteLength":11436,
			"byteOffset":14740,
			"target":34962
		},
		{
			"buffer":0,
			"byteLength":11436,
			"byteOffset":26176,
			"target":34962
		},
		{
			"buffer":0,
			"byteLength":7624,
			"byteOffset":37612,
			"target":34962
		},
		{
			"buffer":0,
			"byteLength":10446,
			"byteOffset":45236,
			"target":34963
		}
	],
	"samplers":[
		{
			"magFilter":9729,
			"minFilter":9987
		}
	],
	"buffers":[
		{
			"byteLength":55684,
			"uri":"1_Fireball.bin"
		}
	]
}
