{
	"asset":{
		"generator":"Khronos glTF Blender I/O v4.0.44",
		"version":"2.0"
	},
	"scene":0,
	"scenes":[
		{
			"name":"Scene",
			"nodes":[
				0,
				1
			]
		}
	],
	"nodes":[
		{
			"mesh":0,
			"name":"20_Element_Fire_bg"
		},
		{
			"mesh":1,
			"name":"20_Element_Fire"
		}
	],
	"materials":[
		{
			"doubleSided":true,
			"name":"Atlas_Diffuse",
			"pbrMetallicRoughness":{
				"baseColorTexture":{
					"index":0
				},
				"metallicFactor":0
			}
		},
		{
			"doubleSided":true,
			"emissiveFactor":[
				1,
				1,
				1
			],
			"emissiveTexture":{
				"index":1
			},
			"name":"Atlas_Unlit",
			"pbrMetallicRoughness":{
				"baseColorFactor":[
					0,
					0,
					0,
					1
				]
			}
		}
	],
	"meshes":[
		{
			"name":"Plane.491",
			"primitives":[
				{
					"attributes":{
						"POSITION":0,
						"NORMAL":1,
						"TEXCOORD_0":2
					},
					"indices":3,
					"material":0
				}
			]
		},
		{
			"name":"Cube.040",
			"primitives":[
				{
					"attributes":{
						"POSITION":4,
						"NORMAL":5,
						"TEXCOORD_0":6
					},
					"indices":7,
					"material":1
				},
				{
					"attributes":{
						"POSITION":8,
						"NORMAL":9,
						"TEXCOORD_0":10
					},
					"indices":11,
					"material":0
				}
			]
		}
	],
	"textures":[
		{
			"sampler":0,
			"source":0
		},
		{
			"sampler":0,
			"source":0
		}
	],
	"images":[
		{
			"mimeType":"image/png",
			"name":"Cards_Atlas",
			"uri":"Cards_Atlas.png"
		}
	],
	"accessors":[
		{
			"bufferView":0,
			"componentType":5126,
			"count":40,
			"max":[
				1.3787049055099487,
				1.7539122104644775,
				-0.09858018159866333
			],
			"min":[
				-1.3787049055099487,
				-1.7558696269989014,
				-1.5580112934112549
			],
			"type":"VEC3"
		},
		{
			"bufferView":1,
			"componentType":5126,
			"count":40,
			"type":"VEC3"
		},
		{
			"bufferView":2,
			"componentType":5126,
			"count":40,
			"type":"VEC2"
		},
		{
			"bufferView":3,
			"componentType":5123,
			"count":114,
			"type":"SCALAR"
		},
		{
			"bufferView":4,
			"componentType":5126,
			"count":583,
			"max":[
				0.5499257445335388,
				1.2630219459533691,
				-0.3822612762451172
			],
			"min":[
				-0.5407378077507019,
				-0.5192120671272278,
				-1.0190829038619995
			],
			"type":"VEC3"
		},
		{
			"bufferView":5,
			"componentType":5126,
			"count":583,
			"type":"VEC3"
		},
		{
			"bufferView":6,
			"componentType":5126,
			"count":583,
			"type":"VEC2"
		},
		{
			"bufferView":7,
			"componentType":5123,
			"count":2700,
			"type":"SCALAR"
		},
		{
			"bufferView":8,
			"componentType":5126,
			"count":634,
			"max":[
				1.0242974758148193,
				-0.36279261112213135,
				-0.1714622974395752
			],
			"min":[
				-1.0242974758148193,
				-1.7471227645874023,
				-0.8286356925964355
			],
			"type":"VEC3"
		},
		{
			"bufferView":9,
			"componentType":5126,
			"count":634,
			"type":"VEC3"
		},
		{
			"bufferView":10,
			"componentType":5126,
			"count":634,
			"type":"VEC2"
		},
		{
			"bufferView":11,
			"componentType":5123,
			"count":3216,
			"type":"SCALAR"
		}
	],
	"bufferViews":[
		{
			"buffer":0,
			"byteLength":480,
			"byteOffset":0,
			"target":34962
		},
		{
			"buffer":0,
			"byteLength":480,
			"byteOffset":480,
			"target":34962
		},
		{
			"buffer":0,
			"byteLength":320,
			"byteOffset":960,
			"target":34962
		},
		{
			"buffer":0,
			"byteLength":228,
			"byteOffset":1280,
			"target":34963
		},
		{
			"buffer":0,
			"byteLength":6996,
			"byteOffset":1508,
			"target":34962
		},
		{
			"buffer":0,
			"byteLength":6996,
			"byteOffset":8504,
			"target":34962
		},
		{
			"buffer":0,
			"byteLength":4664,
			"byteOffset":15500,
			"target":34962
		},
		{
			"buffer":0,
			"byteLength":5400,
			"byteOffset":20164,
			"target":34963
		},
		{
			"buffer":0,
			"byteLength":7608,
			"byteOffset":25564,
			"target":34962
		},
		{
			"buffer":0,
			"byteLength":7608,
			"byteOffset":33172,
			"target":34962
		},
		{
			"buffer":0,
			"byteLength":5072,
			"byteOffset":40780,
			"target":34962
		},
		{
			"buffer":0,
			"byteLength":6432,
			"byteOffset":45852,
			"target":34963
		}
	],
	"samplers":[
		{
			"magFilter":9729,
			"minFilter":9987
		}
	],
	"buffers":[
		{
			"byteLength":52284,
			"uri":"20_Element_Fire.bin"
		}
	]
}
