{
	"asset":{
		"generator":"Khronos glTF Blender I/O v4.0.44",
		"version":"2.0"
	},
	"scene":0,
	"scenes":[
		{
			"name":"Scene",
			"nodes":[
				0,
				1
			]
		}
	],
	"nodes":[
		{
			"mesh":0,
			"name":"21_Element_Lightning_bg"
		},
		{
			"mesh":1,
			"name":"21_Element_Lightning"
		}
	],
	"materials":[
		{
			"doubleSided":true,
			"name":"Atlas_Diffuse",
			"pbrMetallicRoughness":{
				"baseColorTexture":{
					"index":0
				},
				"metallicFactor":0
			}
		},
		{
			"doubleSided":true,
			"emissiveFactor":[
				1,
				1,
				1
			],
			"emissiveTexture":{
				"index":1
			},
			"name":"Atlas_Unlit",
			"pbrMetallicRoughness":{
				"baseColorFactor":[
					0,
					0,
					0,
					1
				]
			}
		}
	],
	"meshes":[
		{
			"name":"Plane.497",
			"primitives":[
				{
					"attributes":{
						"POSITION":0,
						"NORMAL":1,
						"TEXCOORD_0":2
					},
					"indices":3,
					"material":0
				}
			]
		},
		{
			"name":"Cube.057",
			"primitives":[
				{
					"attributes":{
						"COLOR_0":4,
						"POSITION":5,
						"NORMAL":6,
						"TEXCOORD_0":7,
						"TEXCOORD_1":8,
						"TEXCOORD_2":9
					},
					"indices":10,
					"material":1
				},
				{
					"attributes":{
						"COLOR_0":11,
						"POSITION":12,
						"NORMAL":13,
						"TEXCOORD_0":14,
						"TEXCOORD_1":15,
						"TEXCOORD_2":16
					},
					"indices":17,
					"material":0
				}
			]
		}
	],
	"textures":[
		{
			"sampler":0,
			"source":0
		},
		{
			"sampler":0,
			"source":0
		}
	],
	"images":[
		{
			"mimeType":"image/png",
			"name":"Cards_Atlas",
			"uri":"Cards_Atlas.png"
		}
	],
	"accessors":[
		{
			"bufferView":0,
			"componentType":5126,
			"count":40,
			"max":[
				1.3787049055099487,
				1.7539122104644775,
				-0.09858018159866333
			],
			"min":[
				-1.3787049055099487,
				-1.7558696269989014,
				-1.5580112934112549
			],
			"type":"VEC3"
		},
		{
			"bufferView":1,
			"componentType":5126,
			"count":40,
			"type":"VEC3"
		},
		{
			"bufferView":2,
			"componentType":5126,
			"count":40,
			"type":"VEC2"
		},
		{
			"bufferView":3,
			"componentType":5123,
			"count":114,
			"type":"SCALAR"
		},
		{
			"bufferView":4,
			"componentType":5123,
			"count":699,
			"normalized":true,
			"type":"VEC4"
		},
		{
			"bufferView":5,
			"componentType":5126,
			"count":699,
			"max":[
				1.0756436586380005,
				1.7312134504318237,
				-0.012499312870204449
			],
			"min":[
				-1.2478086948394775,
				-1.6482504606246948,
				-0.6146643161773682
			],
			"type":"VEC3"
		},
		{
			"bufferView":6,
			"componentType":5126,
			"count":699,
			"type":"VEC3"
		},
		{
			"bufferView":7,
			"componentType":5126,
			"count":699,
			"type":"VEC2"
		},
		{
			"bufferView":8,
			"componentType":5126,
			"count":699,
			"type":"VEC2"
		},
		{
			"bufferView":9,
			"componentType":5126,
			"count":699,
			"type":"VEC2"
		},
		{
			"bufferView":10,
			"componentType":5123,
			"count":2751,
			"type":"SCALAR"
		},
		{
			"bufferView":11,
			"componentType":5123,
			"count":667,
			"normalized":true,
			"type":"VEC4"
		},
		{
			"bufferView":12,
			"componentType":5126,
			"count":667,
			"max":[
				1.0242974758148193,
				-0.36279261112213135,
				-0.1714622974395752
			],
			"min":[
				-1.0242974758148193,
				-1.7417192459106445,
				-0.8286356925964355
			],
			"type":"VEC3"
		},
		{
			"bufferView":13,
			"componentType":5126,
			"count":667,
			"type":"VEC3"
		},
		{
			"bufferView":14,
			"componentType":5126,
			"count":667,
			"type":"VEC2"
		},
		{
			"bufferView":15,
			"componentType":5126,
			"count":667,
			"type":"VEC2"
		},
		{
			"bufferView":16,
			"componentType":5126,
			"count":667,
			"type":"VEC2"
		},
		{
			"bufferView":17,
			"componentType":5123,
			"count":3216,
			"type":"SCALAR"
		}
	],
	"bufferViews":[
		{
			"buffer":0,
			"byteLength":480,
			"byteOffset":0,
			"target":34962
		},
		{
			"buffer":0,
			"byteLength":480,
			"byteOffset":480,
			"target":34962
		},
		{
			"buffer":0,
			"byteLength":320,
			"byteOffset":960,
			"target":34962
		},
		{
			"buffer":0,
			"byteLength":228,
			"byteOffset":1280,
			"target":34963
		},
		{
			"buffer":0,
			"byteLength":5592,
			"byteOffset":1508,
			"target":34962
		},
		{
			"buffer":0,
			"byteLength":8388,
			"byteOffset":7100,
			"target":34962
		},
		{
			"buffer":0,
			"byteLength":8388,
			"byteOffset":15488,
			"target":34962
		},
		{
			"buffer":0,
			"byteLength":5592,
			"byteOffset":23876,
			"target":34962
		},
		{
			"buffer":0,
			"byteLength":5592,
			"byteOffset":29468,
			"target":34962
		},
		{
			"buffer":0,
			"byteLength":5592,
			"byteOffset":35060,
			"target":34962
		},
		{
			"buffer":0,
			"byteLength":5502,
			"byteOffset":40652,
			"target":34963
		},
		{
			"buffer":0,
			"byteLength":5336,
			"byteOffset":46156,
			"target":34962
		},
		{
			"buffer":0,
			"byteLength":8004,
			"byteOffset":51492,
			"target":34962
		},
		{
			"buffer":0,
			"byteLength":8004,
			"byteOffset":59496,
			"target":34962
		},
		{
			"buffer":0,
			"byteLength":5336,
			"byteOffset":67500,
			"target":34962
		},
		{
			"buffer":0,
			"byteLength":5336,
			"byteOffset":72836,
			"target":34962
		},
		{
			"buffer":0,
			"byteLength":5336,
			"byteOffset":78172,
			"target":34962
		},
		{
			"buffer":0,
			"byteLength":6432,
			"byteOffset":83508,
			"target":34963
		}
	],
	"samplers":[
		{
			"magFilter":9729,
			"minFilter":9987
		}
	],
	"buffers":[
		{
			"byteLength":89940,
			"uri":"21_Element_Lightning.bin"
		}
	]
}
