{
	"asset":{
		"generator":"Khronos glTF Blender I/O v4.0.44",
		"version":"2.0"
	},
	"scene":0,
	"scenes":[
		{
			"name":"Scene",
			"nodes":[
				0,
				1
			]
		}
	],
	"nodes":[
		{
			"mesh":0,
			"name":"22_Element_Air_bg"
		},
		{
			"mesh":1,
			"name":"22_Element_Air"
		}
	],
	"materials":[
		{
			"doubleSided":true,
			"name":"Atlas_Diffuse",
			"pbrMetallicRoughness":{
				"baseColorTexture":{
					"index":0
				},
				"metallicFactor":0
			}
		},
		{
			"doubleSided":true,
			"emissiveFactor":[
				1,
				1,
				1
			],
			"emissiveTexture":{
				"index":1
			},
			"name":"Atlas_Unlit",
			"pbrMetallicRoughness":{
				"baseColorFactor":[
					0,
					0,
					0,
					1
				]
			}
		}
	],
	"meshes":[
		{
			"name":"Plane.524",
			"primitives":[
				{
					"attributes":{
						"POSITION":0,
						"NORMAL":1,
						"TEXCOORD_0":2
					},
					"indices":3,
					"material":0
				}
			]
		},
		{
			"name":"Plane.000",
			"primitives":[
				{
					"attributes":{
						"POSITION":4,
						"NORMAL":5,
						"TEXCOORD_0":6
					},
					"indices":7,
					"material":1
				},
				{
					"attributes":{
						"POSITION":8,
						"NORMAL":9,
						"TEXCOORD_0":10
					},
					"indices":11,
					"material":0
				}
			]
		}
	],
	"textures":[
		{
			"sampler":0,
			"source":0
		},
		{
			"sampler":0,
			"source":0
		}
	],
	"images":[
		{
			"mimeType":"image/png",
			"name":"Cards_Atlas",
			"uri":"Cards_Atlas.png"
		}
	],
	"accessors":[
		{
			"bufferView":0,
			"componentType":5126,
			"count":40,
			"max":[
				1.3787049055099487,
				1.7539122104644775,
				-0.09858018159866333
			],
			"min":[
				-1.3787049055099487,
				-1.7558696269989014,
				-1.5580112934112549
			],
			"type":"VEC3"
		},
		{
			"bufferView":1,
			"componentType":5126,
			"count":40,
			"type":"VEC3"
		},
		{
			"bufferView":2,
			"componentType":5126,
			"count":40,
			"type":"VEC2"
		},
		{
			"bufferView":3,
			"componentType":5123,
			"count":114,
			"type":"SCALAR"
		},
		{
			"bufferView":4,
			"componentType":5126,
			"count":619,
			"max":[
				1.0136326551437378,
				1.1374589204788208,
				-0.02576437033712864
			],
			"min":[
				-0.9139360189437866,
				-1.4760754108428955,
				-0.8693875670433044
			],
			"type":"VEC3"
		},
		{
			"bufferView":5,
			"componentType":5126,
			"count":619,
			"type":"VEC3"
		},
		{
			"bufferView":6,
			"componentType":5126,
			"count":619,
			"type":"VEC2"
		},
		{
			"bufferView":7,
			"componentType":5123,
			"count":1320,
			"type":"SCALAR"
		},
		{
			"bufferView":8,
			"componentType":5126,
			"count":657,
			"max":[
				1.0242974758148193,
				-0.3627925217151642,
				-0.17146244645118713
			],
			"min":[
				-1.0242974758148193,
				-1.7459986209869385,
				-0.8286357522010803
			],
			"type":"VEC3"
		},
		{
			"bufferView":9,
			"componentType":5126,
			"count":657,
			"type":"VEC3"
		},
		{
			"bufferView":10,
			"componentType":5126,
			"count":657,
			"type":"VEC2"
		},
		{
			"bufferView":11,
			"componentType":5123,
			"count":3216,
			"type":"SCALAR"
		}
	],
	"bufferViews":[
		{
			"buffer":0,
			"byteLength":480,
			"byteOffset":0,
			"target":34962
		},
		{
			"buffer":0,
			"byteLength":480,
			"byteOffset":480,
			"target":34962
		},
		{
			"buffer":0,
			"byteLength":320,
			"byteOffset":960,
			"target":34962
		},
		{
			"buffer":0,
			"byteLength":228,
			"byteOffset":1280,
			"target":34963
		},
		{
			"buffer":0,
			"byteLength":7428,
			"byteOffset":1508,
			"target":34962
		},
		{
			"buffer":0,
			"byteLength":7428,
			"byteOffset":8936,
			"target":34962
		},
		{
			"buffer":0,
			"byteLength":4952,
			"byteOffset":16364,
			"target":34962
		},
		{
			"buffer":0,
			"byteLength":2640,
			"byteOffset":21316,
			"target":34963
		},
		{
			"buffer":0,
			"byteLength":7884,
			"byteOffset":23956,
			"target":34962
		},
		{
			"buffer":0,
			"byteLength":7884,
			"byteOffset":31840,
			"target":34962
		},
		{
			"buffer":0,
			"byteLength":5256,
			"byteOffset":39724,
			"target":34962
		},
		{
			"buffer":0,
			"byteLength":6432,
			"byteOffset":44980,
			"target":34963
		}
	],
	"samplers":[
		{
			"magFilter":9729,
			"minFilter":9987
		}
	],
	"buffers":[
		{
			"byteLength":51412,
			"uri":"22_Element_Air.bin"
		}
	]
}
