{
	"asset":{
		"generator":"Khronos glTF Blender I/O v4.0.44",
		"version":"2.0"
	},
	"scene":0,
	"scenes":[
		{
			"name":"Scene",
			"nodes":[
				0,
				1
			]
		}
	],
	"nodes":[
		{
			"mesh":0,
			"name":"23_Element_Water_bg"
		},
		{
			"mesh":1,
			"name":"23_Element_Water"
		}
	],
	"materials":[
		{
			"doubleSided":true,
			"name":"Atlas_Diffuse",
			"pbrMetallicRoughness":{
				"baseColorTexture":{
					"index":0
				},
				"metallicFactor":0
			}
		},
		{
			"doubleSided":true,
			"emissiveFactor":[
				1,
				1,
				1
			],
			"emissiveTexture":{
				"index":1
			},
			"name":"Atlas_Unlit",
			"pbrMetallicRoughness":{
				"baseColorFactor":[
					0,
					0,
					0,
					1
				]
			}
		}
	],
	"meshes":[
		{
			"name":"Plane.500",
			"primitives":[
				{
					"attributes":{
						"POSITION":0,
						"NORMAL":1,
						"TEXCOORD_0":2
					},
					"indices":3,
					"material":0
				}
			]
		},
		{
			"name":"Cube.041",
			"primitives":[
				{
					"attributes":{
						"COLOR_0":4,
						"POSITION":5,
						"NORMAL":6,
						"TEXCOORD_0":7
					},
					"indices":8,
					"material":1
				},
				{
					"attributes":{
						"COLOR_0":9,
						"POSITION":10,
						"NORMAL":11,
						"TEXCOORD_0":12
					},
					"indices":13,
					"material":0
				}
			]
		}
	],
	"textures":[
		{
			"sampler":0,
			"source":0
		},
		{
			"sampler":0,
			"source":0
		}
	],
	"images":[
		{
			"mimeType":"image/png",
			"name":"Cards_Atlas",
			"uri":"Cards_Atlas.png"
		}
	],
	"accessors":[
		{
			"bufferView":0,
			"componentType":5126,
			"count":40,
			"max":[
				1.3787049055099487,
				1.7539122104644775,
				-0.09858018159866333
			],
			"min":[
				-1.3787049055099487,
				-1.7558696269989014,
				-1.5580112934112549
			],
			"type":"VEC3"
		},
		{
			"bufferView":1,
			"componentType":5126,
			"count":40,
			"type":"VEC3"
		},
		{
			"bufferView":2,
			"componentType":5126,
			"count":40,
			"type":"VEC2"
		},
		{
			"bufferView":3,
			"componentType":5123,
			"count":114,
			"type":"SCALAR"
		},
		{
			"bufferView":4,
			"componentType":5123,
			"count":435,
			"normalized":true,
			"type":"VEC4"
		},
		{
			"bufferView":5,
			"componentType":5126,
			"count":435,
			"max":[
				0.5619497895240784,
				0.9460063576698303,
				-0.40020692348480225
			],
			"min":[
				-0.5663211345672607,
				-0.6540325880050659,
				-0.40020713210105896
			],
			"type":"VEC3"
		},
		{
			"bufferView":6,
			"componentType":5126,
			"count":435,
			"type":"VEC3"
		},
		{
			"bufferView":7,
			"componentType":5126,
			"count":435,
			"type":"VEC2"
		},
		{
			"bufferView":8,
			"componentType":5123,
			"count":2112,
			"type":"SCALAR"
		},
		{
			"bufferView":9,
			"componentType":5123,
			"count":699,
			"normalized":true,
			"type":"VEC4"
		},
		{
			"bufferView":10,
			"componentType":5126,
			"count":699,
			"max":[
				1.0242975950241089,
				-0.36279258131980896,
				-0.171462282538414
			],
			"min":[
				-1.0242975950241089,
				-1.744378924369812,
				-0.8286356925964355
			],
			"type":"VEC3"
		},
		{
			"bufferView":11,
			"componentType":5126,
			"count":699,
			"type":"VEC3"
		},
		{
			"bufferView":12,
			"componentType":5126,
			"count":699,
			"type":"VEC2"
		},
		{
			"bufferView":13,
			"componentType":5123,
			"count":3216,
			"type":"SCALAR"
		}
	],
	"bufferViews":[
		{
			"buffer":0,
			"byteLength":480,
			"byteOffset":0,
			"target":34962
		},
		{
			"buffer":0,
			"byteLength":480,
			"byteOffset":480,
			"target":34962
		},
		{
			"buffer":0,
			"byteLength":320,
			"byteOffset":960,
			"target":34962
		},
		{
			"buffer":0,
			"byteLength":228,
			"byteOffset":1280,
			"target":34963
		},
		{
			"buffer":0,
			"byteLength":3480,
			"byteOffset":1508,
			"target":34962
		},
		{
			"buffer":0,
			"byteLength":5220,
			"byteOffset":4988,
			"target":34962
		},
		{
			"buffer":0,
			"byteLength":5220,
			"byteOffset":10208,
			"target":34962
		},
		{
			"buffer":0,
			"byteLength":3480,
			"byteOffset":15428,
			"target":34962
		},
		{
			"buffer":0,
			"byteLength":4224,
			"byteOffset":18908,
			"target":34963
		},
		{
			"buffer":0,
			"byteLength":5592,
			"byteOffset":23132,
			"target":34962
		},
		{
			"buffer":0,
			"byteLength":8388,
			"byteOffset":28724,
			"target":34962
		},
		{
			"buffer":0,
			"byteLength":8388,
			"byteOffset":37112,
			"target":34962
		},
		{
			"buffer":0,
			"byteLength":5592,
			"byteOffset":45500,
			"target":34962
		},
		{
			"buffer":0,
			"byteLength":6432,
			"byteOffset":51092,
			"target":34963
		}
	],
	"samplers":[
		{
			"magFilter":9729,
			"minFilter":9987
		}
	],
	"buffers":[
		{
			"byteLength":57524,
			"uri":"23_Element_Water.bin"
		}
	]
}
