{
	"asset":{
		"generator":"Khronos glTF Blender I/O v4.0.44",
		"version":"2.0"
	},
	"scene":0,
	"scenes":[
		{
			"name":"Scene",
			"nodes":[
				0,
				1
			]
		}
	],
	"nodes":[
		{
			"mesh":0,
			"name":"24_Element_Dark_bg"
		},
		{
			"mesh":1,
			"name":"24_Element_Dark"
		}
	],
	"materials":[
		{
			"doubleSided":true,
			"name":"Atlas_Diffuse",
			"pbrMetallicRoughness":{
				"baseColorTexture":{
					"index":0
				},
				"metallicFactor":0
			}
		},
		{
			"doubleSided":true,
			"emissiveFactor":[
				1,
				1,
				1
			],
			"emissiveTexture":{
				"index":1
			},
			"name":"Atlas_Unlit",
			"pbrMetallicRoughness":{
				"baseColorFactor":[
					0,
					0,
					0,
					1
				]
			}
		}
	],
	"meshes":[
		{
			"name":"Plane.530",
			"primitives":[
				{
					"attributes":{
						"POSITION":0,
						"NORMAL":1,
						"TEXCOORD_0":2
					},
					"indices":3,
					"material":0
				}
			]
		},
		{
			"name":"Plane.295",
			"primitives":[
				{
					"attributes":{
						"POSITION":4,
						"NORMAL":5,
						"TEXCOORD_0":6,
						"TEXCOORD_1":7
					},
					"indices":8,
					"material":1
				},
				{
					"attributes":{
						"POSITION":9,
						"NORMAL":10,
						"TEXCOORD_0":11,
						"TEXCOORD_1":12
					},
					"indices":13,
					"material":0
				}
			]
		}
	],
	"textures":[
		{
			"sampler":0,
			"source":0
		},
		{
			"sampler":0,
			"source":0
		}
	],
	"images":[
		{
			"mimeType":"image/png",
			"name":"Cards_Atlas",
			"uri":"Cards_Atlas.png"
		}
	],
	"accessors":[
		{
			"bufferView":0,
			"componentType":5126,
			"count":40,
			"max":[
				1.3787049055099487,
				1.7539122104644775,
				-0.09858018159866333
			],
			"min":[
				-1.3787049055099487,
				-1.7558696269989014,
				-1.5580112934112549
			],
			"type":"VEC3"
		},
		{
			"bufferView":1,
			"componentType":5126,
			"count":40,
			"type":"VEC3"
		},
		{
			"bufferView":2,
			"componentType":5126,
			"count":40,
			"type":"VEC2"
		},
		{
			"bufferView":3,
			"componentType":5123,
			"count":114,
			"type":"SCALAR"
		},
		{
			"bufferView":4,
			"componentType":5126,
			"count":175,
			"max":[
				1.0421932935714722,
				1.4250242710113525,
				-0.9726942777633667
			],
			"min":[
				-0.938796877861023,
				-0.7608420252799988,
				-1.532448172569275
			],
			"type":"VEC3"
		},
		{
			"bufferView":5,
			"componentType":5126,
			"count":175,
			"type":"VEC3"
		},
		{
			"bufferView":6,
			"componentType":5126,
			"count":175,
			"type":"VEC2"
		},
		{
			"bufferView":7,
			"componentType":5126,
			"count":175,
			"type":"VEC2"
		},
		{
			"bufferView":8,
			"componentType":5123,
			"count":684,
			"type":"SCALAR"
		},
		{
			"bufferView":9,
			"componentType":5126,
			"count":633,
			"max":[
				1.0242974758148193,
				-0.36279261112213135,
				-0.171462282538414
			],
			"min":[
				-1.0242974758148193,
				-1.7440240383148193,
				-0.8286356925964355
			],
			"type":"VEC3"
		},
		{
			"bufferView":10,
			"componentType":5126,
			"count":633,
			"type":"VEC3"
		},
		{
			"bufferView":11,
			"componentType":5126,
			"count":633,
			"type":"VEC2"
		},
		{
			"bufferView":12,
			"componentType":5126,
			"count":633,
			"type":"VEC2"
		},
		{
			"bufferView":13,
			"componentType":5123,
			"count":3216,
			"type":"SCALAR"
		}
	],
	"bufferViews":[
		{
			"buffer":0,
			"byteLength":480,
			"byteOffset":0,
			"target":34962
		},
		{
			"buffer":0,
			"byteLength":480,
			"byteOffset":480,
			"target":34962
		},
		{
			"buffer":0,
			"byteLength":320,
			"byteOffset":960,
			"target":34962
		},
		{
			"buffer":0,
			"byteLength":228,
			"byteOffset":1280,
			"target":34963
		},
		{
			"buffer":0,
			"byteLength":2100,
			"byteOffset":1508,
			"target":34962
		},
		{
			"buffer":0,
			"byteLength":2100,
			"byteOffset":3608,
			"target":34962
		},
		{
			"buffer":0,
			"byteLength":1400,
			"byteOffset":5708,
			"target":34962
		},
		{
			"buffer":0,
			"byteLength":1400,
			"byteOffset":7108,
			"target":34962
		},
		{
			"buffer":0,
			"byteLength":1368,
			"byteOffset":8508,
			"target":34963
		},
		{
			"buffer":0,
			"byteLength":7596,
			"byteOffset":9876,
			"target":34962
		},
		{
			"buffer":0,
			"byteLength":7596,
			"byteOffset":17472,
			"target":34962
		},
		{
			"buffer":0,
			"byteLength":5064,
			"byteOffset":25068,
			"target":34962
		},
		{
			"buffer":0,
			"byteLength":5064,
			"byteOffset":30132,
			"target":34962
		},
		{
			"buffer":0,
			"byteLength":6432,
			"byteOffset":35196,
			"target":34963
		}
	],
	"samplers":[
		{
			"magFilter":9729,
			"minFilter":9987
		}
	],
	"buffers":[
		{
			"byteLength":41628,
			"uri":"24_Element_Dark.bin"
		}
	]
}
