{
	"asset":{
		"generator":"Khronos glTF Blender I/O v4.0.44",
		"version":"2.0"
	},
	"scene":0,
	"scenes":[
		{
			"name":"Scene",
			"nodes":[
				0,
				1
			]
		}
	],
	"nodes":[
		{
			"mesh":0,
			"name":"25_Element_Earth_bg"
		},
		{
			"mesh":1,
			"name":"25_Element_Earth",
			"rotation":[
				0,
				0.7071066498756409,
				0.70710688829422,
				1.1520233300643667e-07
			],
			"scale":[
				0.4647436738014221,
				0.5067132115364075,
				0.4031992256641388
			]
		}
	],
	"materials":[
		{
			"doubleSided":true,
			"name":"Atlas_Diffuse",
			"pbrMetallicRoughness":{
				"baseColorTexture":{
					"index":0
				},
				"metallicFactor":0
			}
		},
		{
			"doubleSided":true,
			"emissiveFactor":[
				1,
				1,
				1
			],
			"emissiveTexture":{
				"index":1
			},
			"name":"Atlas_Unlit",
			"pbrMetallicRoughness":{
				"baseColorFactor":[
					0,
					0,
					0,
					1
				]
			}
		}
	],
	"meshes":[
		{
			"name":"Plane.527",
			"primitives":[
				{
					"attributes":{
						"POSITION":0,
						"NORMAL":1,
						"TEXCOORD_0":2
					},
					"indices":3,
					"material":0
				}
			]
		},
		{
			"name":"Plane.137",
			"primitives":[
				{
					"attributes":{
						"POSITION":4,
						"NORMAL":5,
						"TEXCOORD_0":6
					},
					"indices":7,
					"material":1
				},
				{
					"attributes":{
						"POSITION":8,
						"NORMAL":9,
						"TEXCOORD_0":10
					},
					"indices":11,
					"material":0
				}
			]
		}
	],
	"textures":[
		{
			"sampler":0,
			"source":0
		},
		{
			"sampler":0,
			"source":0
		}
	],
	"images":[
		{
			"mimeType":"image/png",
			"name":"Cards_Atlas",
			"uri":"Cards_Atlas.png"
		}
	],
	"accessors":[
		{
			"bufferView":0,
			"componentType":5126,
			"count":32,
			"max":[
				1.3787049055099487,
				1.7539122104644775,
				-0.09858018159866333
			],
			"min":[
				-1.3787049055099487,
				-1.7558696269989014,
				-1.5580112934112549
			],
			"type":"VEC3"
		},
		{
			"bufferView":1,
			"componentType":5126,
			"count":32,
			"type":"VEC3"
		},
		{
			"bufferView":2,
			"componentType":5126,
			"count":32,
			"type":"VEC2"
		},
		{
			"bufferView":3,
			"componentType":5123,
			"count":114,
			"type":"SCALAR"
		},
		{
			"bufferView":4,
			"componentType":5126,
			"count":163,
			"max":[
				2.5736844539642334,
				-0.4463768005371094,
				4.302332401275635
			],
			"min":[
				-2.81074857711792,
				-1.5494065284729004,
				-1.4890241622924805
			],
			"type":"VEC3"
		},
		{
			"bufferView":5,
			"componentType":5126,
			"count":163,
			"type":"VEC3"
		},
		{
			"bufferView":6,
			"componentType":5126,
			"count":163,
			"type":"VEC2"
		},
		{
			"bufferView":7,
			"componentType":5123,
			"count":471,
			"type":"SCALAR"
		},
		{
			"bufferView":8,
			"componentType":5126,
			"count":554,
			"max":[
				2.2040047645568848,
				-0.3383809030056,
				-0.8997845649719238
			],
			"min":[
				-2.204005718231201,
				-1.635314702987671,
				-4.331611156463623
			],
			"type":"VEC3"
		},
		{
			"bufferView":9,
			"componentType":5126,
			"count":554,
			"type":"VEC3"
		},
		{
			"bufferView":10,
			"componentType":5126,
			"count":554,
			"type":"VEC2"
		},
		{
			"bufferView":11,
			"componentType":5123,
			"count":3216,
			"type":"SCALAR"
		}
	],
	"bufferViews":[
		{
			"buffer":0,
			"byteLength":384,
			"byteOffset":0,
			"target":34962
		},
		{
			"buffer":0,
			"byteLength":384,
			"byteOffset":384,
			"target":34962
		},
		{
			"buffer":0,
			"byteLength":256,
			"byteOffset":768,
			"target":34962
		},
		{
			"buffer":0,
			"byteLength":228,
			"byteOffset":1024,
			"target":34963
		},
		{
			"buffer":0,
			"byteLength":1956,
			"byteOffset":1252,
			"target":34962
		},
		{
			"buffer":0,
			"byteLength":1956,
			"byteOffset":3208,
			"target":34962
		},
		{
			"buffer":0,
			"byteLength":1304,
			"byteOffset":5164,
			"target":34962
		},
		{
			"buffer":0,
			"byteLength":942,
			"byteOffset":6468,
			"target":34963
		},
		{
			"buffer":0,
			"byteLength":6648,
			"byteOffset":7412,
			"target":34962
		},
		{
			"buffer":0,
			"byteLength":6648,
			"byteOffset":14060,
			"target":34962
		},
		{
			"buffer":0,
			"byteLength":4432,
			"byteOffset":20708,
			"target":34962
		},
		{
			"buffer":0,
			"byteLength":6432,
			"byteOffset":25140,
			"target":34963
		}
	],
	"samplers":[
		{
			"magFilter":9729,
			"minFilter":9987
		}
	],
	"buffers":[
		{
			"byteLength":31572,
			"uri":"25_Element_Earth.bin"
		}
	]
}
