{
	"asset":{
		"generator":"Khronos glTF Blender I/O v4.0.44",
		"version":"2.0"
	},
	"scene":0,
	"scenes":[
		{
			"name":"Scene",
			"nodes":[
				0,
				1
			]
		}
	],
	"nodes":[
		{
			"mesh":0,
			"name":"27_Book_bg"
		},
		{
			"mesh":1,
			"name":"27_Book"
		}
	],
	"materials":[
		{
			"doubleSided":true,
			"name":"Atlas_Diffuse",
			"pbrMetallicRoughness":{
				"baseColorTexture":{
					"index":0
				},
				"metallicFactor":0
			}
		}
	],
	"meshes":[
		{
			"name":"Plane.494",
			"primitives":[
				{
					"attributes":{
						"POSITION":0,
						"NORMAL":1,
						"TEXCOORD_0":2
					},
					"indices":3,
					"material":0
				}
			]
		},
		{
			"name":"Cube.488",
			"primitives":[
				{
					"attributes":{
						"COLOR_0":4,
						"POSITION":5,
						"NORMAL":6,
						"TEXCOORD_0":7,
						"TEXCOORD_1":8,
						"TEXCOORD_2":9
					},
					"indices":10,
					"material":0
				}
			]
		}
	],
	"textures":[
		{
			"sampler":0,
			"source":0
		}
	],
	"images":[
		{
			"mimeType":"image/png",
			"name":"Cards_Atlas",
			"uri":"Cards_Atlas.png"
		}
	],
	"accessors":[
		{
			"bufferView":0,
			"componentType":5126,
			"count":40,
			"max":[
				1.3787049055099487,
				1.7539122104644775,
				-0.09858018159866333
			],
			"min":[
				-1.3787049055099487,
				-1.7558696269989014,
				-1.5580112934112549
			],
			"type":"VEC3"
		},
		{
			"bufferView":1,
			"componentType":5126,
			"count":40,
			"type":"VEC3"
		},
		{
			"bufferView":2,
			"componentType":5126,
			"count":40,
			"type":"VEC2"
		},
		{
			"bufferView":3,
			"componentType":5123,
			"count":114,
			"type":"SCALAR"
		},
		{
			"bufferView":4,
			"componentType":5123,
			"count":4760,
			"normalized":true,
			"type":"VEC4"
		},
		{
			"bufferView":5,
			"componentType":5126,
			"count":4760,
			"max":[
				0.9745567440986633,
				1.743955373764038,
				-0.10708893090486526
			],
			"min":[
				-1.3398009538650513,
				-1.7434298992156982,
				-1.4859845638275146
			],
			"type":"VEC3"
		},
		{
			"bufferView":6,
			"componentType":5126,
			"count":4760,
			"type":"VEC3"
		},
		{
			"bufferView":7,
			"componentType":5126,
			"count":4760,
			"type":"VEC2"
		},
		{
			"bufferView":8,
			"componentType":5126,
			"count":4760,
			"type":"VEC2"
		},
		{
			"bufferView":9,
			"componentType":5126,
			"count":4760,
			"type":"VEC2"
		},
		{
			"bufferView":10,
			"componentType":5123,
			"count":16587,
			"type":"SCALAR"
		}
	],
	"bufferViews":[
		{
			"buffer":0,
			"byteLength":480,
			"byteOffset":0,
			"target":34962
		},
		{
			"buffer":0,
			"byteLength":480,
			"byteOffset":480,
			"target":34962
		},
		{
			"buffer":0,
			"byteLength":320,
			"byteOffset":960,
			"target":34962
		},
		{
			"buffer":0,
			"byteLength":228,
			"byteOffset":1280,
			"target":34963
		},
		{
			"buffer":0,
			"byteLength":38080,
			"byteOffset":1508,
			"target":34962
		},
		{
			"buffer":0,
			"byteLength":57120,
			"byteOffset":39588,
			"target":34962
		},
		{
			"buffer":0,
			"byteLength":57120,
			"byteOffset":96708,
			"target":34962
		},
		{
			"buffer":0,
			"byteLength":38080,
			"byteOffset":153828,
			"target":34962
		},
		{
			"buffer":0,
			"byteLength":38080,
			"byteOffset":191908,
			"target":34962
		},
		{
			"buffer":0,
			"byteLength":38080,
			"byteOffset":229988,
			"target":34962
		},
		{
			"buffer":0,
			"byteLength":33174,
			"byteOffset":268068,
			"target":34963
		}
	],
	"samplers":[
		{
			"magFilter":9729,
			"minFilter":9987
		}
	],
	"buffers":[
		{
			"byteLength":301244,
			"uri":"27_Book.bin"
		}
	]
}
