{
	"asset":{
		"generator":"Khronos glTF Blender I/O v4.0.44",
		"version":"2.0"
	},
	"scene":0,
	"scenes":[
		{
			"name":"Scene",
			"nodes":[
				0,
				1
			]
		}
	],
	"nodes":[
		{
			"mesh":0,
			"name":"28_RollDice_bg"
		},
		{
			"mesh":1,
			"name":"28_RollDice"
		}
	],
	"materials":[
		{
			"doubleSided":true,
			"name":"Atlas_Diffuse",
			"pbrMetallicRoughness":{
				"baseColorTexture":{
					"index":0
				},
				"metallicFactor":0
			}
		},
		{
			"doubleSided":true,
			"emissiveFactor":[
				1,
				1,
				1
			],
			"emissiveTexture":{
				"index":1
			},
			"name":"Atlas_Unlit",
			"pbrMetallicRoughness":{
				"baseColorFactor":[
					0,
					0,
					0,
					1
				]
			}
		}
	],
	"meshes":[
		{
			"name":"Plane.503",
			"primitives":[
				{
					"attributes":{
						"POSITION":0,
						"NORMAL":1,
						"TEXCOORD_0":2
					},
					"indices":3,
					"material":0
				}
			]
		},
		{
			"name":"Plane.275",
			"primitives":[
				{
					"attributes":{
						"POSITION":4,
						"NORMAL":5,
						"TEXCOORD_0":6
					},
					"indices":7,
					"material":0
				},
				{
					"attributes":{
						"POSITION":8,
						"NORMAL":9,
						"TEXCOORD_0":10
					},
					"indices":11,
					"material":1
				}
			]
		}
	],
	"textures":[
		{
			"sampler":0,
			"source":0
		},
		{
			"sampler":0,
			"source":0
		}
	],
	"images":[
		{
			"mimeType":"image/png",
			"name":"Cards_Atlas",
			"uri":"Cards_Atlas.png"
		}
	],
	"accessors":[
		{
			"bufferView":0,
			"componentType":5126,
			"count":38,
			"max":[
				1.3787049055099487,
				1.7539122104644775,
				-0.09858018159866333
			],
			"min":[
				-1.3787049055099487,
				-1.7558696269989014,
				-1.5580112934112549
			],
			"type":"VEC3"
		},
		{
			"bufferView":1,
			"componentType":5126,
			"count":38,
			"type":"VEC3"
		},
		{
			"bufferView":2,
			"componentType":5126,
			"count":38,
			"type":"VEC2"
		},
		{
			"bufferView":3,
			"componentType":5123,
			"count":114,
			"type":"SCALAR"
		},
		{
			"bufferView":4,
			"componentType":5126,
			"count":3161,
			"max":[
				0.7323813438415527,
				1.0848329067230225,
				-0.1298098862171173
			],
			"min":[
				-1.3771165609359741,
				-1.7443020343780518,
				-1.3190593719482422
			],
			"type":"VEC3"
		},
		{
			"bufferView":5,
			"componentType":5126,
			"count":3161,
			"type":"VEC3"
		},
		{
			"bufferView":6,
			"componentType":5126,
			"count":3161,
			"type":"VEC2"
		},
		{
			"bufferView":7,
			"componentType":5123,
			"count":14154,
			"type":"SCALAR"
		},
		{
			"bufferView":8,
			"componentType":5126,
			"count":33,
			"max":[
				1.1380548477172852,
				1.5861361026763916,
				-0.9645261764526367
			],
			"min":[
				-1.3723881244659424,
				-1.7479586601257324,
				-1.4776066541671753
			],
			"type":"VEC3"
		},
		{
			"bufferView":9,
			"componentType":5126,
			"count":33,
			"type":"VEC3"
		},
		{
			"bufferView":10,
			"componentType":5126,
			"count":33,
			"type":"VEC2"
		},
		{
			"bufferView":11,
			"componentType":5123,
			"count":51,
			"type":"SCALAR"
		}
	],
	"bufferViews":[
		{
			"buffer":0,
			"byteLength":456,
			"byteOffset":0,
			"target":34962
		},
		{
			"buffer":0,
			"byteLength":456,
			"byteOffset":456,
			"target":34962
		},
		{
			"buffer":0,
			"byteLength":304,
			"byteOffset":912,
			"target":34962
		},
		{
			"buffer":0,
			"byteLength":228,
			"byteOffset":1216,
			"target":34963
		},
		{
			"buffer":0,
			"byteLength":37932,
			"byteOffset":1444,
			"target":34962
		},
		{
			"buffer":0,
			"byteLength":37932,
			"byteOffset":39376,
			"target":34962
		},
		{
			"buffer":0,
			"byteLength":25288,
			"byteOffset":77308,
			"target":34962
		},
		{
			"buffer":0,
			"byteLength":28308,
			"byteOffset":102596,
			"target":34963
		},
		{
			"buffer":0,
			"byteLength":396,
			"byteOffset":130904,
			"target":34962
		},
		{
			"buffer":0,
			"byteLength":396,
			"byteOffset":131300,
			"target":34962
		},
		{
			"buffer":0,
			"byteLength":264,
			"byteOffset":131696,
			"target":34962
		},
		{
			"buffer":0,
			"byteLength":102,
			"byteOffset":131960,
			"target":34963
		}
	],
	"samplers":[
		{
			"magFilter":9729,
			"minFilter":9987
		}
	],
	"buffers":[
		{
			"byteLength":132064,
			"uri":"28_RollDice.bin"
		}
	]
}
