{
	"asset":{
		"generator":"Khronos glTF Blender I/O v4.0.44",
		"version":"2.0"
	},
	"scene":0,
	"scenes":[
		{
			"name":"Scene",
			"nodes":[
				0,
				1
			]
		}
	],
	"nodes":[
		{
			"mesh":0,
			"name":"29_Block_bg"
		},
		{
			"mesh":1,
			"name":"29_Block",
			"rotation":[
				0,
				0,
				1,
				1.6292067073209182e-07
			],
			"scale":[
				1.3439337015151978,
				1.3439337015151978,
				1.3439337015151978
			]
		}
	],
	"materials":[
		{
			"doubleSided":true,
			"name":"Atlas_Diffuse",
			"pbrMetallicRoughness":{
				"baseColorTexture":{
					"index":0
				},
				"metallicFactor":0
			}
		},
		{
			"doubleSided":true,
			"emissiveFactor":[
				1,
				1,
				1
			],
			"emissiveTexture":{
				"index":1
			},
			"name":"Atlas_Unlit",
			"pbrMetallicRoughness":{
				"baseColorFactor":[
					0,
					0,
					0,
					1
				]
			}
		}
	],
	"meshes":[
		{
			"name":"Plane.509",
			"primitives":[
				{
					"attributes":{
						"POSITION":0,
						"NORMAL":1,
						"TEXCOORD_0":2
					},
					"indices":3,
					"material":0
				}
			]
		},
		{
			"name":"Plane.409",
			"primitives":[
				{
					"attributes":{
						"POSITION":4,
						"NORMAL":5,
						"TEXCOORD_0":6,
						"TEXCOORD_1":7
					},
					"indices":8,
					"material":1
				},
				{
					"attributes":{
						"POSITION":9,
						"NORMAL":10,
						"TEXCOORD_0":11,
						"TEXCOORD_1":12
					},
					"indices":13,
					"material":0
				}
			]
		}
	],
	"textures":[
		{
			"sampler":0,
			"source":0
		},
		{
			"sampler":0,
			"source":0
		}
	],
	"images":[
		{
			"mimeType":"image/png",
			"name":"Cards_Atlas",
			"uri":"Cards_Atlas.png"
		}
	],
	"accessors":[
		{
			"bufferView":0,
			"componentType":5126,
			"count":36,
			"max":[
				1.3787049055099487,
				1.7539122104644775,
				-0.09858018159866333
			],
			"min":[
				-1.3787049055099487,
				-1.7558696269989014,
				-1.5580112934112549
			],
			"type":"VEC3"
		},
		{
			"bufferView":1,
			"componentType":5126,
			"count":36,
			"type":"VEC3"
		},
		{
			"bufferView":2,
			"componentType":5126,
			"count":36,
			"type":"VEC2"
		},
		{
			"bufferView":3,
			"componentType":5123,
			"count":114,
			"type":"SCALAR"
		},
		{
			"bufferView":4,
			"componentType":5126,
			"count":1265,
			"max":[
				1.015152931213379,
				0.6093684434890747,
				-0.28952696919441223
			],
			"min":[
				-1.0082461833953857,
				-1.3017817735671997,
				-1.0204640626907349
			],
			"type":"VEC3"
		},
		{
			"bufferView":5,
			"componentType":5126,
			"count":1265,
			"type":"VEC3"
		},
		{
			"bufferView":6,
			"componentType":5126,
			"count":1265,
			"type":"VEC2"
		},
		{
			"bufferView":7,
			"componentType":5126,
			"count":1265,
			"type":"VEC2"
		},
		{
			"bufferView":8,
			"componentType":5123,
			"count":3966,
			"type":"SCALAR"
		},
		{
			"bufferView":9,
			"componentType":5126,
			"count":17432,
			"max":[
				1.0221754312515259,
				1.3057714700698853,
				-0.07530829310417175
			],
			"min":[
				-1.0221762657165527,
				-0.7710981965065002,
				-1.157334566116333
			],
			"type":"VEC3"
		},
		{
			"bufferView":10,
			"componentType":5126,
			"count":17432,
			"type":"VEC3"
		},
		{
			"bufferView":11,
			"componentType":5126,
			"count":17432,
			"type":"VEC2"
		},
		{
			"bufferView":12,
			"componentType":5126,
			"count":17432,
			"type":"VEC2"
		},
		{
			"bufferView":13,
			"componentType":5123,
			"count":64332,
			"type":"SCALAR"
		}
	],
	"bufferViews":[
		{
			"buffer":0,
			"byteLength":432,
			"byteOffset":0,
			"target":34962
		},
		{
			"buffer":0,
			"byteLength":432,
			"byteOffset":432,
			"target":34962
		},
		{
			"buffer":0,
			"byteLength":288,
			"byteOffset":864,
			"target":34962
		},
		{
			"buffer":0,
			"byteLength":228,
			"byteOffset":1152,
			"target":34963
		},
		{
			"buffer":0,
			"byteLength":15180,
			"byteOffset":1380,
			"target":34962
		},
		{
			"buffer":0,
			"byteLength":15180,
			"byteOffset":16560,
			"target":34962
		},
		{
			"buffer":0,
			"byteLength":10120,
			"byteOffset":31740,
			"target":34962
		},
		{
			"buffer":0,
			"byteLength":10120,
			"byteOffset":41860,
			"target":34962
		},
		{
			"buffer":0,
			"byteLength":7932,
			"byteOffset":51980,
			"target":34963
		},
		{
			"buffer":0,
			"byteLength":209184,
			"byteOffset":59912,
			"target":34962
		},
		{
			"buffer":0,
			"byteLength":209184,
			"byteOffset":269096,
			"target":34962
		},
		{
			"buffer":0,
			"byteLength":139456,
			"byteOffset":478280,
			"target":34962
		},
		{
			"buffer":0,
			"byteLength":139456,
			"byteOffset":617736,
			"target":34962
		},
		{
			"buffer":0,
			"byteLength":128664,
			"byteOffset":757192,
			"target":34963
		}
	],
	"samplers":[
		{
			"magFilter":9729,
			"minFilter":9987
		}
	],
	"buffers":[
		{
			"byteLength":885856,
			"uri":"29_Block.bin"
		}
	]
}
