{
	"asset":{
		"generator":"Khronos glTF Blender I/O v4.0.44",
		"version":"2.0"
	},
	"scene":0,
	"scenes":[
		{
			"name":"Scene",
			"nodes":[
				0,
				1
			]
		}
	],
	"nodes":[
		{
			"mesh":0,
			"name":"2_TrenchcoatMushrooms_bg"
		},
		{
			"mesh":1,
			"name":"2_TrenchcoatMushrooms"
		}
	],
	"materials":[
		{
			"doubleSided":true,
			"name":"Atlas_Diffuse",
			"pbrMetallicRoughness":{
				"baseColorTexture":{
					"index":0
				},
				"metallicFactor":0
			}
		},
		{
			"doubleSided":true,
			"emissiveFactor":[
				1,
				1,
				1
			],
			"emissiveTexture":{
				"index":1
			},
			"name":"Atlas_Unlit",
			"pbrMetallicRoughness":{
				"baseColorFactor":[
					0,
					0,
					0,
					1
				]
			}
		}
	],
	"meshes":[
		{
			"name":"Plane.009",
			"primitives":[
				{
					"attributes":{
						"POSITION":0,
						"NORMAL":1,
						"TEXCOORD_0":2
					},
					"indices":3,
					"material":0
				}
			]
		},
		{
			"name":"Cube.704",
			"primitives":[
				{
					"attributes":{
						"POSITION":4,
						"NORMAL":5,
						"TEXCOORD_0":6,
						"TEXCOORD_1":7
					},
					"indices":8,
					"material":0
				},
				{
					"attributes":{
						"POSITION":9,
						"NORMAL":10,
						"TEXCOORD_0":11,
						"TEXCOORD_1":12
					},
					"indices":13,
					"material":1
				}
			]
		}
	],
	"textures":[
		{
			"sampler":0,
			"source":0
		},
		{
			"sampler":0,
			"source":0
		}
	],
	"images":[
		{
			"mimeType":"image/png",
			"name":"Cards_Atlas",
			"uri":"Cards_Atlas.png"
		}
	],
	"accessors":[
		{
			"bufferView":0,
			"componentType":5126,
			"count":32,
			"max":[
				1.3787049055099487,
				1.7539122104644775,
				-0.00573774753138423
			],
			"min":[
				-1.3787049055099487,
				-1.7558696269989014,
				-1.5580112934112549
			],
			"type":"VEC3"
		},
		{
			"bufferView":1,
			"componentType":5126,
			"count":32,
			"type":"VEC3"
		},
		{
			"bufferView":2,
			"componentType":5126,
			"count":32,
			"type":"VEC2"
		},
		{
			"bufferView":3,
			"componentType":5123,
			"count":114,
			"type":"SCALAR"
		},
		{
			"bufferView":4,
			"componentType":5126,
			"count":7909,
			"max":[
				1.369592308998108,
				1.0788224935531616,
				-0.10255587100982666
			],
			"min":[
				-1.365759253501892,
				-1.693591833114624,
				-1.5557453632354736
			],
			"type":"VEC3"
		},
		{
			"bufferView":5,
			"componentType":5126,
			"count":7909,
			"type":"VEC3"
		},
		{
			"bufferView":6,
			"componentType":5126,
			"count":7909,
			"type":"VEC2"
		},
		{
			"bufferView":7,
			"componentType":5126,
			"count":7909,
			"type":"VEC2"
		},
		{
			"bufferView":8,
			"componentType":5123,
			"count":30324,
			"type":"SCALAR"
		},
		{
			"bufferView":9,
			"componentType":5126,
			"count":186,
			"max":[
				0.31343671679496765,
				0.7813839912414551,
				-0.6215820908546448
			],
			"min":[
				-0.12767817080020905,
				-0.8475026488304138,
				-0.8139907121658325
			],
			"type":"VEC3"
		},
		{
			"bufferView":10,
			"componentType":5126,
			"count":186,
			"type":"VEC3"
		},
		{
			"bufferView":11,
			"componentType":5126,
			"count":186,
			"type":"VEC2"
		},
		{
			"bufferView":12,
			"componentType":5126,
			"count":186,
			"type":"VEC2"
		},
		{
			"bufferView":13,
			"componentType":5123,
			"count":792,
			"type":"SCALAR"
		}
	],
	"bufferViews":[
		{
			"buffer":0,
			"byteLength":384,
			"byteOffset":0,
			"target":34962
		},
		{
			"buffer":0,
			"byteLength":384,
			"byteOffset":384,
			"target":34962
		},
		{
			"buffer":0,
			"byteLength":256,
			"byteOffset":768,
			"target":34962
		},
		{
			"buffer":0,
			"byteLength":228,
			"byteOffset":1024,
			"target":34963
		},
		{
			"buffer":0,
			"byteLength":94908,
			"byteOffset":1252,
			"target":34962
		},
		{
			"buffer":0,
			"byteLength":94908,
			"byteOffset":96160,
			"target":34962
		},
		{
			"buffer":0,
			"byteLength":63272,
			"byteOffset":191068,
			"target":34962
		},
		{
			"buffer":0,
			"byteLength":63272,
			"byteOffset":254340,
			"target":34962
		},
		{
			"buffer":0,
			"byteLength":60648,
			"byteOffset":317612,
			"target":34963
		},
		{
			"buffer":0,
			"byteLength":2232,
			"byteOffset":378260,
			"target":34962
		},
		{
			"buffer":0,
			"byteLength":2232,
			"byteOffset":380492,
			"target":34962
		},
		{
			"buffer":0,
			"byteLength":1488,
			"byteOffset":382724,
			"target":34962
		},
		{
			"buffer":0,
			"byteLength":1488,
			"byteOffset":384212,
			"target":34962
		},
		{
			"buffer":0,
			"byteLength":1584,
			"byteOffset":385700,
			"target":34963
		}
	],
	"samplers":[
		{
			"magFilter":9729,
			"minFilter":9987
		}
	],
	"buffers":[
		{
			"byteLength":387284,
			"uri":"2_TrenchcoatMushrooms.bin"
		}
	]
}
