{
	"asset":{
		"generator":"Khronos glTF Blender I/O v4.0.44",
		"version":"2.0"
	},
	"scene":0,
	"scenes":[
		{
			"name":"Scene",
			"nodes":[
				0,
				1
			]
		}
	],
	"nodes":[
		{
			"mesh":0,
			"name":"30_Wizard_bg"
		},
		{
			"mesh":1,
			"name":"30_Wizard"
		}
	],
	"materials":[
		{
			"doubleSided":true,
			"name":"Atlas_Diffuse",
			"pbrMetallicRoughness":{
				"baseColorTexture":{
					"index":0
				},
				"metallicFactor":0
			}
		},
		{
			"doubleSided":true,
			"emissiveFactor":[
				1,
				1,
				1
			],
			"emissiveTexture":{
				"index":1
			},
			"name":"Atlas_Unlit",
			"pbrMetallicRoughness":{
				"baseColorFactor":[
					0,
					0,
					0,
					1
				]
			}
		}
	],
	"meshes":[
		{
			"name":"Plane.506",
			"primitives":[
				{
					"attributes":{
						"POSITION":0,
						"NORMAL":1,
						"TEXCOORD_0":2
					},
					"indices":3,
					"material":0
				}
			]
		},
		{
			"name":"Cylinder.004",
			"primitives":[
				{
					"attributes":{
						"COLOR_0":4,
						"POSITION":5,
						"NORMAL":6,
						"TEXCOORD_0":7,
						"TEXCOORD_1":8
					},
					"indices":9,
					"material":1
				},
				{
					"attributes":{
						"COLOR_0":10,
						"POSITION":11,
						"NORMAL":12,
						"TEXCOORD_0":13,
						"TEXCOORD_1":14
					},
					"indices":15,
					"material":0
				}
			]
		}
	],
	"textures":[
		{
			"sampler":0,
			"source":0
		},
		{
			"sampler":0,
			"source":0
		}
	],
	"images":[
		{
			"mimeType":"image/png",
			"name":"Cards_Atlas",
			"uri":"Cards_Atlas.png"
		}
	],
	"accessors":[
		{
			"bufferView":0,
			"componentType":5126,
			"count":36,
			"max":[
				1.3787049055099487,
				1.7539122104644775,
				-0.09858018159866333
			],
			"min":[
				-1.3787049055099487,
				-1.7558696269989014,
				-1.5580112934112549
			],
			"type":"VEC3"
		},
		{
			"bufferView":1,
			"componentType":5126,
			"count":36,
			"type":"VEC3"
		},
		{
			"bufferView":2,
			"componentType":5126,
			"count":36,
			"type":"VEC2"
		},
		{
			"bufferView":3,
			"componentType":5123,
			"count":114,
			"type":"SCALAR"
		},
		{
			"bufferView":4,
			"componentType":5123,
			"count":1495,
			"normalized":true,
			"type":"VEC4"
		},
		{
			"bufferView":5,
			"componentType":5126,
			"count":1495,
			"max":[
				1.0352513790130615,
				1.3201072216033936,
				-0.7543960213661194
			],
			"min":[
				0.1870126724243164,
				-0.5708840489387512,
				-1.2405661344528198
			],
			"type":"VEC3"
		},
		{
			"bufferView":6,
			"componentType":5126,
			"count":1495,
			"type":"VEC3"
		},
		{
			"bufferView":7,
			"componentType":5126,
			"count":1495,
			"type":"VEC2"
		},
		{
			"bufferView":8,
			"componentType":5126,
			"count":1495,
			"type":"VEC2"
		},
		{
			"bufferView":9,
			"componentType":5123,
			"count":6144,
			"type":"SCALAR"
		},
		{
			"bufferView":10,
			"componentType":5123,
			"count":2769,
			"normalized":true,
			"type":"VEC4"
		},
		{
			"bufferView":11,
			"componentType":5126,
			"count":2769,
			"max":[
				1.4393854141235352,
				1.1408753395080566,
				-0.08683665096759796
			],
			"min":[
				-1.3103723526000977,
				-1.6573790311813354,
				-1.5559861660003662
			],
			"type":"VEC3"
		},
		{
			"bufferView":12,
			"componentType":5126,
			"count":2769,
			"type":"VEC3"
		},
		{
			"bufferView":13,
			"componentType":5126,
			"count":2769,
			"type":"VEC2"
		},
		{
			"bufferView":14,
			"componentType":5126,
			"count":2769,
			"type":"VEC2"
		},
		{
			"bufferView":15,
			"componentType":5123,
			"count":12558,
			"type":"SCALAR"
		}
	],
	"bufferViews":[
		{
			"buffer":0,
			"byteLength":432,
			"byteOffset":0,
			"target":34962
		},
		{
			"buffer":0,
			"byteLength":432,
			"byteOffset":432,
			"target":34962
		},
		{
			"buffer":0,
			"byteLength":288,
			"byteOffset":864,
			"target":34962
		},
		{
			"buffer":0,
			"byteLength":228,
			"byteOffset":1152,
			"target":34963
		},
		{
			"buffer":0,
			"byteLength":11960,
			"byteOffset":1380,
			"target":34962
		},
		{
			"buffer":0,
			"byteLength":17940,
			"byteOffset":13340,
			"target":34962
		},
		{
			"buffer":0,
			"byteLength":17940,
			"byteOffset":31280,
			"target":34962
		},
		{
			"buffer":0,
			"byteLength":11960,
			"byteOffset":49220,
			"target":34962
		},
		{
			"buffer":0,
			"byteLength":11960,
			"byteOffset":61180,
			"target":34962
		},
		{
			"buffer":0,
			"byteLength":12288,
			"byteOffset":73140,
			"target":34963
		},
		{
			"buffer":0,
			"byteLength":22152,
			"byteOffset":85428,
			"target":34962
		},
		{
			"buffer":0,
			"byteLength":33228,
			"byteOffset":107580,
			"target":34962
		},
		{
			"buffer":0,
			"byteLength":33228,
			"byteOffset":140808,
			"target":34962
		},
		{
			"buffer":0,
			"byteLength":22152,
			"byteOffset":174036,
			"target":34962
		},
		{
			"buffer":0,
			"byteLength":22152,
			"byteOffset":196188,
			"target":34962
		},
		{
			"buffer":0,
			"byteLength":25116,
			"byteOffset":218340,
			"target":34963
		}
	],
	"samplers":[
		{
			"magFilter":9729,
			"minFilter":9987
		}
	],
	"buffers":[
		{
			"byteLength":243456,
			"uri":"30_Wizard.bin"
		}
	]
}
