{
	"asset":{
		"generator":"Khronos glTF Blender I/O v4.0.44",
		"version":"2.0"
	},
	"scene":0,
	"scenes":[
		{
			"name":"Scene",
			"nodes":[
				0,
				1
			]
		}
	],
	"nodes":[
		{
			"mesh":0,
			"name":"3_Monk_bg"
		},
		{
			"mesh":1,
			"name":"3_Monk"
		}
	],
	"materials":[
		{
			"doubleSided":true,
			"name":"Atlas_Diffuse",
			"pbrMetallicRoughness":{
				"baseColorTexture":{
					"index":0
				},
				"metallicFactor":0
			}
		},
		{
			"doubleSided":true,
			"emissiveFactor":[
				1,
				1,
				1
			],
			"emissiveTexture":{
				"index":1
			},
			"name":"Atlas_Unlit",
			"pbrMetallicRoughness":{
				"baseColorFactor":[
					0,
					0,
					0,
					1
				]
			}
		}
	],
	"meshes":[
		{
			"name":"Plane.008",
			"primitives":[
				{
					"attributes":{
						"POSITION":0,
						"NORMAL":1,
						"TEXCOORD_0":2
					},
					"indices":3,
					"material":0
				}
			]
		},
		{
			"name":"Cylinder.012",
			"primitives":[
				{
					"attributes":{
						"POSITION":4,
						"NORMAL":5,
						"TEXCOORD_0":6,
						"TEXCOORD_1":7
					},
					"indices":8,
					"material":1
				},
				{
					"attributes":{
						"POSITION":9,
						"NORMAL":10,
						"TEXCOORD_0":11,
						"TEXCOORD_1":12
					},
					"indices":13,
					"material":0
				}
			]
		}
	],
	"textures":[
		{
			"sampler":0,
			"source":0
		},
		{
			"sampler":0,
			"source":0
		}
	],
	"images":[
		{
			"mimeType":"image/png",
			"name":"Cards_Atlas",
			"uri":"Cards_Atlas.png"
		}
	],
	"accessors":[
		{
			"bufferView":0,
			"componentType":5126,
			"count":32,
			"max":[
				1.3787049055099487,
				1.7539122104644775,
				-0.00573774753138423
			],
			"min":[
				-1.3787049055099487,
				-1.7558696269989014,
				-1.5580112934112549
			],
			"type":"VEC3"
		},
		{
			"bufferView":1,
			"componentType":5126,
			"count":32,
			"type":"VEC3"
		},
		{
			"bufferView":2,
			"componentType":5126,
			"count":32,
			"type":"VEC2"
		},
		{
			"bufferView":3,
			"componentType":5123,
			"count":114,
			"type":"SCALAR"
		},
		{
			"bufferView":4,
			"componentType":5126,
			"count":32,
			"max":[
				1.3753749132156372,
				1.7425895929336548,
				-0.5718655586242676
			],
			"min":[
				-1.3777681589126587,
				0.09158894419670105,
				-1.413866639137268
			],
			"type":"VEC3"
		},
		{
			"bufferView":5,
			"componentType":5126,
			"count":32,
			"type":"VEC3"
		},
		{
			"bufferView":6,
			"componentType":5126,
			"count":32,
			"type":"VEC2"
		},
		{
			"bufferView":7,
			"componentType":5126,
			"count":32,
			"type":"VEC2"
		},
		{
			"bufferView":8,
			"componentType":5123,
			"count":48,
			"type":"SCALAR"
		},
		{
			"bufferView":9,
			"componentType":5126,
			"count":7581,
			"max":[
				1.004257082939148,
				1.403324007987976,
				-0.02734231948852539
			],
			"min":[
				-1.0042575597763062,
				-1.4467835426330566,
				-1.2241641283035278
			],
			"type":"VEC3"
		},
		{
			"bufferView":10,
			"componentType":5126,
			"count":7581,
			"type":"VEC3"
		},
		{
			"bufferView":11,
			"componentType":5126,
			"count":7581,
			"type":"VEC2"
		},
		{
			"bufferView":12,
			"componentType":5126,
			"count":7581,
			"type":"VEC2"
		},
		{
			"bufferView":13,
			"componentType":5123,
			"count":34368,
			"type":"SCALAR"
		}
	],
	"bufferViews":[
		{
			"buffer":0,
			"byteLength":384,
			"byteOffset":0,
			"target":34962
		},
		{
			"buffer":0,
			"byteLength":384,
			"byteOffset":384,
			"target":34962
		},
		{
			"buffer":0,
			"byteLength":256,
			"byteOffset":768,
			"target":34962
		},
		{
			"buffer":0,
			"byteLength":228,
			"byteOffset":1024,
			"target":34963
		},
		{
			"buffer":0,
			"byteLength":384,
			"byteOffset":1252,
			"target":34962
		},
		{
			"buffer":0,
			"byteLength":384,
			"byteOffset":1636,
			"target":34962
		},
		{
			"buffer":0,
			"byteLength":256,
			"byteOffset":2020,
			"target":34962
		},
		{
			"buffer":0,
			"byteLength":256,
			"byteOffset":2276,
			"target":34962
		},
		{
			"buffer":0,
			"byteLength":96,
			"byteOffset":2532,
			"target":34963
		},
		{
			"buffer":0,
			"byteLength":90972,
			"byteOffset":2628,
			"target":34962
		},
		{
			"buffer":0,
			"byteLength":90972,
			"byteOffset":93600,
			"target":34962
		},
		{
			"buffer":0,
			"byteLength":60648,
			"byteOffset":184572,
			"target":34962
		},
		{
			"buffer":0,
			"byteLength":60648,
			"byteOffset":245220,
			"target":34962
		},
		{
			"buffer":0,
			"byteLength":68736,
			"byteOffset":305868,
			"target":34963
		}
	],
	"samplers":[
		{
			"magFilter":9729,
			"minFilter":9987
		}
	],
	"buffers":[
		{
			"byteLength":374604,
			"uri":"3_Monk.bin"
		}
	]
}
