{
	"asset":{
		"generator":"Khronos glTF Blender I/O v4.0.44",
		"version":"2.0"
	},
	"scene":0,
	"scenes":[
		{
			"name":"Scene",
			"nodes":[
				0,
				1
			]
		}
	],
	"nodes":[
		{
			"mesh":0,
			"name":"4_Market_bg"
		},
		{
			"mesh":1,
			"name":"4_Market"
		}
	],
	"materials":[
		{
			"doubleSided":true,
			"name":"Atlas_Diffuse",
			"pbrMetallicRoughness":{
				"baseColorTexture":{
					"index":0
				},
				"metallicFactor":0
			}
		},
		{
			"doubleSided":true,
			"emissiveFactor":[
				1,
				1,
				1
			],
			"emissiveTexture":{
				"index":1
			},
			"name":"Atlas_Unlit",
			"pbrMetallicRoughness":{
				"baseColorFactor":[
					0,
					0,
					0,
					1
				]
			}
		}
	],
	"meshes":[
		{
			"name":"Plane.453",
			"primitives":[
				{
					"attributes":{
						"POSITION":0,
						"NORMAL":1,
						"TEXCOORD_0":2
					},
					"indices":3,
					"material":0
				}
			]
		},
		{
			"name":"Plane.432",
			"primitives":[
				{
					"attributes":{
						"POSITION":4,
						"NORMAL":5,
						"TEXCOORD_0":6
					},
					"indices":7,
					"material":1
				},
				{
					"attributes":{
						"POSITION":8,
						"NORMAL":9,
						"TEXCOORD_0":10
					},
					"indices":11,
					"material":0
				}
			]
		}
	],
	"textures":[
		{
			"sampler":0,
			"source":0
		},
		{
			"sampler":0,
			"source":0
		}
	],
	"images":[
		{
			"mimeType":"image/png",
			"name":"Cards_Atlas",
			"uri":"Cards_Atlas.png"
		}
	],
	"accessors":[
		{
			"bufferView":0,
			"componentType":5126,
			"count":32,
			"max":[
				1.3787049055099487,
				1.7539122104644775,
				-0.09858018159866333
			],
			"min":[
				-1.3787049055099487,
				-1.7558696269989014,
				-1.5580112934112549
			],
			"type":"VEC3"
		},
		{
			"bufferView":1,
			"componentType":5126,
			"count":32,
			"type":"VEC3"
		},
		{
			"bufferView":2,
			"componentType":5126,
			"count":32,
			"type":"VEC2"
		},
		{
			"bufferView":3,
			"componentType":5123,
			"count":114,
			"type":"SCALAR"
		},
		{
			"bufferView":4,
			"componentType":5126,
			"count":2533,
			"max":[
				0.8475184440612793,
				0.05613487958908081,
				-0.6289825439453125
			],
			"min":[
				-1.0192302465438843,
				-0.3866908848285675,
				-1.071695327758789
			],
			"type":"VEC3"
		},
		{
			"bufferView":5,
			"componentType":5126,
			"count":2533,
			"type":"VEC3"
		},
		{
			"bufferView":6,
			"componentType":5126,
			"count":2533,
			"type":"VEC2"
		},
		{
			"bufferView":7,
			"componentType":5123,
			"count":13200,
			"type":"SCALAR"
		},
		{
			"bufferView":8,
			"componentType":5126,
			"count":28562,
			"max":[
				1.370327353477478,
				0.5595709085464478,
				-0.10720381140708923
			],
			"min":[
				-1.3719524145126343,
				-1.5472275018692017,
				-1.5560543537139893
			],
			"type":"VEC3"
		},
		{
			"bufferView":9,
			"componentType":5126,
			"count":28562,
			"type":"VEC3"
		},
		{
			"bufferView":10,
			"componentType":5126,
			"count":28562,
			"type":"VEC2"
		},
		{
			"bufferView":11,
			"componentType":5123,
			"count":73254,
			"type":"SCALAR"
		}
	],
	"bufferViews":[
		{
			"buffer":0,
			"byteLength":384,
			"byteOffset":0,
			"target":34962
		},
		{
			"buffer":0,
			"byteLength":384,
			"byteOffset":384,
			"target":34962
		},
		{
			"buffer":0,
			"byteLength":256,
			"byteOffset":768,
			"target":34962
		},
		{
			"buffer":0,
			"byteLength":228,
			"byteOffset":1024,
			"target":34963
		},
		{
			"buffer":0,
			"byteLength":30396,
			"byteOffset":1252,
			"target":34962
		},
		{
			"buffer":0,
			"byteLength":30396,
			"byteOffset":31648,
			"target":34962
		},
		{
			"buffer":0,
			"byteLength":20264,
			"byteOffset":62044,
			"target":34962
		},
		{
			"buffer":0,
			"byteLength":26400,
			"byteOffset":82308,
			"target":34963
		},
		{
			"buffer":0,
			"byteLength":342744,
			"byteOffset":108708,
			"target":34962
		},
		{
			"buffer":0,
			"byteLength":342744,
			"byteOffset":451452,
			"target":34962
		},
		{
			"buffer":0,
			"byteLength":228496,
			"byteOffset":794196,
			"target":34962
		},
		{
			"buffer":0,
			"byteLength":146508,
			"byteOffset":1022692,
			"target":34963
		}
	],
	"samplers":[
		{
			"magFilter":9729,
			"minFilter":9987
		}
	],
	"buffers":[
		{
			"byteLength":1169200,
			"uri":"4_Market.bin"
		}
	]
}
