{
	"asset":{
		"generator":"Khronos glTF Blender I/O v4.0.44",
		"version":"2.0"
	},
	"scene":0,
	"scenes":[
		{
			"name":"Scene",
			"nodes":[
				0,
				1
			]
		}
	],
	"nodes":[
		{
			"mesh":0,
			"name":"6_King_bg"
		},
		{
			"mesh":1,
			"name":"6_King"
		}
	],
	"materials":[
		{
			"doubleSided":true,
			"emissiveFactor":[
				1,
				1,
				1
			],
			"emissiveTexture":{
				"index":0
			},
			"name":"Atlas_Unlit",
			"pbrMetallicRoughness":{
				"baseColorFactor":[
					0,
					0,
					0,
					1
				]
			}
		},
		{
			"doubleSided":true,
			"name":"Atlas_Diffuse",
			"pbrMetallicRoughness":{
				"baseColorTexture":{
					"index":1
				},
				"metallicFactor":0
			}
		}
	],
	"meshes":[
		{
			"name":"Plane.036",
			"primitives":[
				{
					"attributes":{
						"POSITION":0,
						"NORMAL":1,
						"TEXCOORD_0":2
					},
					"indices":3,
					"material":0
				}
			]
		},
		{
			"name":"CUBezierCurve.001",
			"primitives":[
				{
					"attributes":{
						"POSITION":4,
						"NORMAL":5,
						"TEXCOORD_0":6,
						"TEXCOORD_1":7
					},
					"indices":8,
					"material":0
				},
				{
					"attributes":{
						"POSITION":9,
						"NORMAL":10,
						"TEXCOORD_0":11,
						"TEXCOORD_1":12
					},
					"indices":13,
					"material":1
				}
			]
		}
	],
	"textures":[
		{
			"sampler":0,
			"source":0
		},
		{
			"sampler":0,
			"source":0
		}
	],
	"images":[
		{
			"mimeType":"image/png",
			"name":"Cards_Atlas",
			"uri":"Cards_Atlas.png"
		}
	],
	"accessors":[
		{
			"bufferView":0,
			"componentType":5126,
			"count":32,
			"max":[
				1.3787049055099487,
				1.7539122104644775,
				-0.09858018159866333
			],
			"min":[
				-1.3787049055099487,
				-1.7558696269989014,
				-1.5580112934112549
			],
			"type":"VEC3"
		},
		{
			"bufferView":1,
			"componentType":5126,
			"count":32,
			"type":"VEC3"
		},
		{
			"bufferView":2,
			"componentType":5126,
			"count":32,
			"type":"VEC2"
		},
		{
			"bufferView":3,
			"componentType":5123,
			"count":114,
			"type":"SCALAR"
		},
		{
			"bufferView":4,
			"componentType":5126,
			"count":158,
			"max":[
				0.6328762769699097,
				1.3883427381515503,
				-0.1962047815322876
			],
			"min":[
				-0.9405437111854553,
				-0.37869954109191895,
				-0.9592516422271729
			],
			"type":"VEC3"
		},
		{
			"bufferView":5,
			"componentType":5126,
			"count":158,
			"type":"VEC3"
		},
		{
			"bufferView":6,
			"componentType":5126,
			"count":158,
			"type":"VEC2"
		},
		{
			"bufferView":7,
			"componentType":5126,
			"count":158,
			"type":"VEC2"
		},
		{
			"bufferView":8,
			"componentType":5123,
			"count":708,
			"type":"SCALAR"
		},
		{
			"bufferView":9,
			"componentType":5126,
			"count":7159,
			"max":[
				1.3687818050384521,
				0.584872305393219,
				-0.09826987981796265
			],
			"min":[
				-0.7790874242782593,
				-1.742873191833496,
				-1.4677989482879639
			],
			"type":"VEC3"
		},
		{
			"bufferView":10,
			"componentType":5126,
			"count":7159,
			"type":"VEC3"
		},
		{
			"bufferView":11,
			"componentType":5126,
			"count":7159,
			"type":"VEC2"
		},
		{
			"bufferView":12,
			"componentType":5126,
			"count":7159,
			"type":"VEC2"
		},
		{
			"bufferView":13,
			"componentType":5123,
			"count":32004,
			"type":"SCALAR"
		}
	],
	"bufferViews":[
		{
			"buffer":0,
			"byteLength":384,
			"byteOffset":0,
			"target":34962
		},
		{
			"buffer":0,
			"byteLength":384,
			"byteOffset":384,
			"target":34962
		},
		{
			"buffer":0,
			"byteLength":256,
			"byteOffset":768,
			"target":34962
		},
		{
			"buffer":0,
			"byteLength":228,
			"byteOffset":1024,
			"target":34963
		},
		{
			"buffer":0,
			"byteLength":1896,
			"byteOffset":1252,
			"target":34962
		},
		{
			"buffer":0,
			"byteLength":1896,
			"byteOffset":3148,
			"target":34962
		},
		{
			"buffer":0,
			"byteLength":1264,
			"byteOffset":5044,
			"target":34962
		},
		{
			"buffer":0,
			"byteLength":1264,
			"byteOffset":6308,
			"target":34962
		},
		{
			"buffer":0,
			"byteLength":1416,
			"byteOffset":7572,
			"target":34963
		},
		{
			"buffer":0,
			"byteLength":85908,
			"byteOffset":8988,
			"target":34962
		},
		{
			"buffer":0,
			"byteLength":85908,
			"byteOffset":94896,
			"target":34962
		},
		{
			"buffer":0,
			"byteLength":57272,
			"byteOffset":180804,
			"target":34962
		},
		{
			"buffer":0,
			"byteLength":57272,
			"byteOffset":238076,
			"target":34962
		},
		{
			"buffer":0,
			"byteLength":64008,
			"byteOffset":295348,
			"target":34963
		}
	],
	"samplers":[
		{
			"magFilter":9729,
			"minFilter":9987
		}
	],
	"buffers":[
		{
			"byteLength":359356,
			"uri":"6_King.bin"
		}
	]
}
