{
	"asset":{
		"generator":"Khronos glTF Blender I/O v4.0.44",
		"version":"2.0"
	},
	"scene":0,
	"scenes":[
		{
			"name":"Scene",
			"nodes":[
				0,
				1
			]
		}
	],
	"nodes":[
		{
			"mesh":0,
			"name":"8_LightningWizard_bg"
		},
		{
			"mesh":1,
			"name":"8_LightningWizard"
		}
	],
	"materials":[
		{
			"doubleSided":true,
			"name":"Atlas_Diffuse",
			"pbrMetallicRoughness":{
				"baseColorTexture":{
					"index":0
				},
				"metallicFactor":0
			}
		},
		{
			"doubleSided":true,
			"emissiveFactor":[
				1,
				1,
				1
			],
			"emissiveTexture":{
				"index":1
			},
			"name":"Atlas_Unlit",
			"pbrMetallicRoughness":{
				"baseColorFactor":[
					0,
					0,
					0,
					1
				]
			}
		}
	],
	"meshes":[
		{
			"name":"Plane.003",
			"primitives":[
				{
					"attributes":{
						"POSITION":0,
						"NORMAL":1,
						"TEXCOORD_0":2
					},
					"indices":3,
					"material":0
				}
			]
		},
		{
			"name":"Plane.446",
			"primitives":[
				{
					"attributes":{
						"COLOR_0":4,
						"POSITION":5,
						"NORMAL":6,
						"TEXCOORD_0":7,
						"TEXCOORD_1":8,
						"TEXCOORD_2":9
					},
					"indices":10,
					"material":0
				},
				{
					"attributes":{
						"COLOR_0":11,
						"POSITION":12,
						"NORMAL":13,
						"TEXCOORD_0":14,
						"TEXCOORD_1":15,
						"TEXCOORD_2":16
					},
					"indices":17,
					"material":1
				}
			]
		}
	],
	"textures":[
		{
			"sampler":0,
			"source":0
		},
		{
			"sampler":0,
			"source":0
		}
	],
	"images":[
		{
			"mimeType":"image/png",
			"name":"Cards_Atlas",
			"uri":"Cards_Atlas.png"
		}
	],
	"accessors":[
		{
			"bufferView":0,
			"componentType":5126,
			"count":32,
			"max":[
				1.3787049055099487,
				1.7539122104644775,
				-0.09858018159866333
			],
			"min":[
				-1.3787049055099487,
				-1.7558696269989014,
				-1.5580112934112549
			],
			"type":"VEC3"
		},
		{
			"bufferView":1,
			"componentType":5126,
			"count":32,
			"type":"VEC3"
		},
		{
			"bufferView":2,
			"componentType":5126,
			"count":32,
			"type":"VEC2"
		},
		{
			"bufferView":3,
			"componentType":5123,
			"count":114,
			"type":"SCALAR"
		},
		{
			"bufferView":4,
			"componentType":5123,
			"count":10761,
			"normalized":true,
			"type":"VEC4"
		},
		{
			"bufferView":5,
			"componentType":5126,
			"count":10761,
			"max":[
				1.3645541667938232,
				1.6017341613769531,
				-0.1022268682718277
			],
			"min":[
				-1.370025396347046,
				-1.6872084140777588,
				-1.446969985961914
			],
			"type":"VEC3"
		},
		{
			"bufferView":6,
			"componentType":5126,
			"count":10761,
			"type":"VEC3"
		},
		{
			"bufferView":7,
			"componentType":5126,
			"count":10761,
			"type":"VEC2"
		},
		{
			"bufferView":8,
			"componentType":5126,
			"count":10761,
			"type":"VEC2"
		},
		{
			"bufferView":9,
			"componentType":5126,
			"count":10761,
			"type":"VEC2"
		},
		{
			"bufferView":10,
			"componentType":5123,
			"count":41880,
			"type":"SCALAR"
		},
		{
			"bufferView":11,
			"componentType":5123,
			"count":1021,
			"normalized":true,
			"type":"VEC4"
		},
		{
			"bufferView":12,
			"componentType":5126,
			"count":1021,
			"max":[
				0.4881564974784851,
				0.907404363155365,
				-0.016428502276539803
			],
			"min":[
				-0.23145923018455505,
				-0.6879921555519104,
				-0.267331600189209
			],
			"type":"VEC3"
		},
		{
			"bufferView":13,
			"componentType":5126,
			"count":1021,
			"type":"VEC3"
		},
		{
			"bufferView":14,
			"componentType":5126,
			"count":1021,
			"type":"VEC2"
		},
		{
			"bufferView":15,
			"componentType":5126,
			"count":1021,
			"type":"VEC2"
		},
		{
			"bufferView":16,
			"componentType":5126,
			"count":1021,
			"type":"VEC2"
		},
		{
			"bufferView":17,
			"componentType":5123,
			"count":2982,
			"type":"SCALAR"
		}
	],
	"bufferViews":[
		{
			"buffer":0,
			"byteLength":384,
			"byteOffset":0,
			"target":34962
		},
		{
			"buffer":0,
			"byteLength":384,
			"byteOffset":384,
			"target":34962
		},
		{
			"buffer":0,
			"byteLength":256,
			"byteOffset":768,
			"target":34962
		},
		{
			"buffer":0,
			"byteLength":228,
			"byteOffset":1024,
			"target":34963
		},
		{
			"buffer":0,
			"byteLength":86088,
			"byteOffset":1252,
			"target":34962
		},
		{
			"buffer":0,
			"byteLength":129132,
			"byteOffset":87340,
			"target":34962
		},
		{
			"buffer":0,
			"byteLength":129132,
			"byteOffset":216472,
			"target":34962
		},
		{
			"buffer":0,
			"byteLength":86088,
			"byteOffset":345604,
			"target":34962
		},
		{
			"buffer":0,
			"byteLength":86088,
			"byteOffset":431692,
			"target":34962
		},
		{
			"buffer":0,
			"byteLength":86088,
			"byteOffset":517780,
			"target":34962
		},
		{
			"buffer":0,
			"byteLength":83760,
			"byteOffset":603868,
			"target":34963
		},
		{
			"buffer":0,
			"byteLength":8168,
			"byteOffset":687628,
			"target":34962
		},
		{
			"buffer":0,
			"byteLength":12252,
			"byteOffset":695796,
			"target":34962
		},
		{
			"buffer":0,
			"byteLength":12252,
			"byteOffset":708048,
			"target":34962
		},
		{
			"buffer":0,
			"byteLength":8168,
			"byteOffset":720300,
			"target":34962
		},
		{
			"buffer":0,
			"byteLength":8168,
			"byteOffset":728468,
			"target":34962
		},
		{
			"buffer":0,
			"byteLength":8168,
			"byteOffset":736636,
			"target":34962
		},
		{
			"buffer":0,
			"byteLength":5964,
			"byteOffset":744804,
			"target":34963
		}
	],
	"samplers":[
		{
			"magFilter":9729,
			"minFilter":9987
		}
	],
	"buffers":[
		{
			"byteLength":750768,
			"uri":"8_LightningWizard.bin"
		}
	]
}
