{
	"asset":{
		"generator":"Khronos glTF Blender I/O v4.0.44",
		"version":"2.0"
	},
	"scene":0,
	"scenes":[
		{
			"name":"Scene",
			"nodes":[
				0,
				1
			]
		}
	],
	"nodes":[
		{
			"mesh":0,
			"name":"9_Hypnosis_bg"
		},
		{
			"mesh":1,
			"name":"9_Hypnosis"
		}
	],
	"materials":[
		{
			"doubleSided":true,
			"emissiveFactor":[
				1,
				1,
				1
			],
			"emissiveTexture":{
				"index":0
			},
			"name":"Atlas_Unlit",
			"pbrMetallicRoughness":{
				"baseColorFactor":[
					0,
					0,
					0,
					1
				]
			}
		},
		{
			"doubleSided":true,
			"name":"Atlas_Diffuse",
			"pbrMetallicRoughness":{
				"baseColorTexture":{
					"index":1
				},
				"metallicFactor":0
			}
		}
	],
	"meshes":[
		{
			"name":"Plane.458",
			"primitives":[
				{
					"attributes":{
						"POSITION":0,
						"NORMAL":1,
						"TEXCOORD_0":2
					},
					"indices":3,
					"material":0
				}
			]
		},
		{
			"name":"Plane.166",
			"primitives":[
				{
					"attributes":{
						"POSITION":4,
						"NORMAL":5,
						"TEXCOORD_0":6,
						"TEXCOORD_1":7
					},
					"indices":8,
					"material":0
				},
				{
					"attributes":{
						"POSITION":9,
						"NORMAL":10,
						"TEXCOORD_0":11,
						"TEXCOORD_1":12
					},
					"indices":13,
					"material":1
				}
			]
		}
	],
	"textures":[
		{
			"sampler":0,
			"source":0
		},
		{
			"sampler":0,
			"source":0
		}
	],
	"images":[
		{
			"mimeType":"image/png",
			"name":"Cards_Atlas",
			"uri":"Cards_Atlas.png"
		}
	],
	"accessors":[
		{
			"bufferView":0,
			"componentType":5126,
			"count":40,
			"max":[
				1.3787049055099487,
				1.7539122104644775,
				-0.09858018159866333
			],
			"min":[
				-1.3787049055099487,
				-1.7558696269989014,
				-1.5580112934112549
			],
			"type":"VEC3"
		},
		{
			"bufferView":1,
			"componentType":5126,
			"count":40,
			"type":"VEC3"
		},
		{
			"bufferView":2,
			"componentType":5126,
			"count":40,
			"type":"VEC2"
		},
		{
			"bufferView":3,
			"componentType":5123,
			"count":114,
			"type":"SCALAR"
		},
		{
			"bufferView":4,
			"componentType":5126,
			"count":171,
			"max":[
				0.6769173741340637,
				1.57561457157135,
				-0.9532709717750549
			],
			"min":[
				-1.3682987689971924,
				-0.9136892557144165,
				-1.5415539741516113
			],
			"type":"VEC3"
		},
		{
			"bufferView":5,
			"componentType":5126,
			"count":171,
			"type":"VEC3"
		},
		{
			"bufferView":6,
			"componentType":5126,
			"count":171,
			"type":"VEC2"
		},
		{
			"bufferView":7,
			"componentType":5126,
			"count":171,
			"type":"VEC2"
		},
		{
			"bufferView":8,
			"componentType":5123,
			"count":672,
			"type":"SCALAR"
		},
		{
			"bufferView":9,
			"componentType":5126,
			"count":5943,
			"max":[
				1.368009328842163,
				1.1084707975387573,
				-0.1002839133143425
			],
			"min":[
				-1.3771090507507324,
				-1.5101128816604614,
				-1.5509471893310547
			],
			"type":"VEC3"
		},
		{
			"bufferView":10,
			"componentType":5126,
			"count":5943,
			"type":"VEC3"
		},
		{
			"bufferView":11,
			"componentType":5126,
			"count":5943,
			"type":"VEC2"
		},
		{
			"bufferView":12,
			"componentType":5126,
			"count":5943,
			"type":"VEC2"
		},
		{
			"bufferView":13,
			"componentType":5123,
			"count":25380,
			"type":"SCALAR"
		}
	],
	"bufferViews":[
		{
			"buffer":0,
			"byteLength":480,
			"byteOffset":0,
			"target":34962
		},
		{
			"buffer":0,
			"byteLength":480,
			"byteOffset":480,
			"target":34962
		},
		{
			"buffer":0,
			"byteLength":320,
			"byteOffset":960,
			"target":34962
		},
		{
			"buffer":0,
			"byteLength":228,
			"byteOffset":1280,
			"target":34963
		},
		{
			"buffer":0,
			"byteLength":2052,
			"byteOffset":1508,
			"target":34962
		},
		{
			"buffer":0,
			"byteLength":2052,
			"byteOffset":3560,
			"target":34962
		},
		{
			"buffer":0,
			"byteLength":1368,
			"byteOffset":5612,
			"target":34962
		},
		{
			"buffer":0,
			"byteLength":1368,
			"byteOffset":6980,
			"target":34962
		},
		{
			"buffer":0,
			"byteLength":1344,
			"byteOffset":8348,
			"target":34963
		},
		{
			"buffer":0,
			"byteLength":71316,
			"byteOffset":9692,
			"target":34962
		},
		{
			"buffer":0,
			"byteLength":71316,
			"byteOffset":81008,
			"target":34962
		},
		{
			"buffer":0,
			"byteLength":47544,
			"byteOffset":152324,
			"target":34962
		},
		{
			"buffer":0,
			"byteLength":47544,
			"byteOffset":199868,
			"target":34962
		},
		{
			"buffer":0,
			"byteLength":50760,
			"byteOffset":247412,
			"target":34963
		}
	],
	"samplers":[
		{
			"magFilter":9729,
			"minFilter":9987
		}
	],
	"buffers":[
		{
			"byteLength":298172,
			"uri":"9_Hypnosis.bin"
		}
	]
}
